<?xml version="1.0" encoding="UTF-8"?>
<svg width="500px" height="500px" viewBox="0 0 500 500" version="1.1" xmlns="http://www.w3.org/2000/svg" xmlns:xlink="http://www.w3.org/1999/xlink">
    <title>airplane</title>
    <g id="airplane" stroke="none" stroke-width="1" fill="none" fill-rule="evenodd">
        <g id="plane-duotone" transform="translate(0.000000, 28.000000)" fill-rule="nonzero">
            <path d="M186.510417,166.666667 L317.456597,166.666667 L226.223958,6.99652778 C223.749498,2.66750568 219.144305,-0.00284338994 214.157986,-2.26847033e-06 L157.300347,-2.26847033e-06 C152.943933,-2.26847033e-06 148.840686,2.04717847 146.217295,5.52513269 C143.593904,9.00308691 142.754361,13.5104258 143.949653,17.6996528 L186.510417,166.666667 Z M143.975694,426.736111 C142.778372,430.922106 143.613264,435.427323 146.231037,438.906317 C148.84881,442.385311 152.946492,444.435438 157.300347,444.444444 L214.157986,444.444444 C219.141202,444.444444 223.742357,441.774244 226.215278,437.447917 L317.456597,277.777778 L186.510417,277.777778 L143.975694,426.736111 Z" id="Shape" fill="#BBB0B0" opacity="0.4"></path>
            <path d="M416.666667,277.777778 L97.2222222,277.777778 L59.7222222,327.777778 C57.0992447,331.275081 52.9827403,333.333333 48.6111111,333.333333 L13.8888889,333.333333 C9.6139926,333.330015 5.57878947,331.35826 2.94921206,327.98779 C0.319634658,324.617319 -0.611316729,320.223686 0.425347222,316.076389 L27.7777778,222.222222 L0.425347222,128.368056 C-0.611316729,124.220758 0.319634658,119.827125 2.94921206,116.456655 C5.57878947,113.086184 9.6139926,111.11443 13.8888889,111.111111 L48.6111111,111.111111 C52.9827403,111.111111 57.0992447,113.169363 59.7222222,116.666667 L97.2222222,166.666667 L416.666667,166.666667 C447.352431,166.666667 500,191.536458 500,222.222222 C500,252.907986 447.352431,277.777778 416.666667,277.777778 Z" id="Path" fill="#A3A2A2"></path>
        </g>
    </g>
</svg>