<?xml version="1.0" encoding="UTF-8"?>
<svg width="500px" height="500px" viewBox="0 0 500 500" version="1.1" xmlns="http://www.w3.org/2000/svg" xmlns:xlink="http://www.w3.org/1999/xlink">
    <title>apple</title>
    <g id="apple" stroke="none" stroke-width="1" fill="none" fill-rule="evenodd">
        <g id="apple-alt-duotone" transform="translate(31.000000, 0.000000)" fill-rule="nonzero">
            <path d="M288.421053,86.7446394 C279.324237,95.1916829 267.303444,101.364522 252.358674,105.263158 C241.301173,108.610785 229.798151,110.254073 218.245614,110.136452 L203.625731,109.161793 C202.324349,98.8061578 202.324349,88.3283451 203.625731,77.9727096 C206.224821,54.5808967 213.697206,36.7121507 226.042885,24.3664717 C235.139701,15.9194282 247.160494,9.74658869 262.105263,5.84795322 C273.162765,2.50032661 284.665787,0.857037788 296.218324,0.974658869 L310.838207,1.94931774 L311.812865,16.5692008 C311.921423,28.1211383 310.278329,39.6227974 306.939571,50.6822612 C303.040936,65.6270305 296.868096,77.6478233 288.421053,86.7446394 L288.421053,86.7446394 Z" id="Path" fill="#32AB46" opacity="0.703311754"></path>
            <path d="M341.968811,126.705653 C367.309942,131.254061 388.076673,144.899285 404.269006,167.641326 C418.564003,187.784276 428.310591,213.125406 433.508772,243.664717 C438.054177,271.449519 437.72436,299.813783 432.534113,327.48538 C424.736842,373.619233 409.161793,412.280702 385.808967,443.469786 C357.868746,481.156595 322.823262,500 280.672515,500 C270.276153,500 258.905133,496.751137 246.559454,490.253411 C229.163965,479.844573 207.453969,479.844573 190.05848,490.253411 C177.712801,496.751137 166.34178,500 155.945419,500 C113.807667,500 78.7849253,481.156595 50.877193,443.469786 C27.4853801,412.280702 11.9103314,373.619233 4.15204678,327.48538 C-1.0381999,299.813783 -1.36801692,271.449519 3.17738791,243.664717 C8.37556855,213.125406 18.1221572,187.784276 32.417154,167.641326 C48.6614685,144.899285 69.4282001,131.254061 94.7173489,126.705653 C110.311891,124.106563 131.728395,126.380767 158.966862,133.528265 C182.358674,140.025991 202.153996,147.823262 218.352827,156.920078 C234.597141,147.823262 254.392463,140.025991 277.738791,133.528265 C304.983756,126.380767 326.393762,124.106563 341.968811,126.705653 Z" id="Path" fill="#FF5151"></path>
        </g>
    </g>
</svg>