<?xml version="1.0" encoding="UTF-8"?>
<svg width="500px" height="500px" viewBox="0 0 500 500" version="1.1" xmlns="http://www.w3.org/2000/svg" xmlns:xlink="http://www.w3.org/1999/xlink">
    <title>bag</title>
    <g id="bag" stroke="none" stroke-width="1" fill="none" fill-rule="evenodd">
        <g id="shopping-bag-duotone" transform="translate(31.000000, 0.000000)" fill-rule="nonzero">
            <path d="M1.0331384,155.945419 L1.0331384,155.818713 L94.6003899,155.877193 L94.6003899,124.688109 C94.6588694,55.8966862 150.653021,0 219.444444,0 C288.235867,0 344.20078,56.0331384 344.122888,124.824561 L344.122888,155.945419 L281.744639,155.945419 L281.744639,124.756335 C281.76617,90.3058249 253.855968,62.3607138 219.405458,62.3391822 C184.954948,62.3176506 157.009836,90.2278522 156.988304,124.678363 L156.988304,155.867446 L219.366472,155.867446 L1.0331384,155.945419 Z" id="Path" fill="#B5661D" opacity="0.7064035"></path>
            <path d="M1.0331384,155.818713 L0.877177722,420.925926 C0.864264162,441.605575 9.06682576,461.443376 23.680407,476.075236 C38.2939882,490.707095 58.12152,498.934448 78.8011696,498.947368 L359.502924,499.103314 C402.566062,499.103314 437.475634,464.193743 437.475634,421.130604 L437.631579,156.023392 L1.0331384,155.818713 Z M125.730994,241.65692 C112.812053,241.65692 102.339181,231.184049 102.339181,218.265107 C102.339181,205.346166 112.812053,194.873294 125.730994,194.873294 C138.649936,194.873294 149.122807,205.346166 149.122807,218.265107 C149.122807,231.184049 138.649936,241.65692 125.730994,241.65692 Z M312.865497,241.773879 C299.946556,241.773879 289.473684,231.301008 289.473684,218.382066 C289.473684,205.463125 299.946556,194.990253 312.865497,194.990253 C325.784439,194.990253 336.25731,205.463125 336.25731,218.382066 C336.25731,231.301008 325.784439,241.773879 312.865497,241.773879 Z" id="Shape" fill="#0E204C"></path>
        </g>
    </g>
</svg>