<?xml version="1.0" encoding="UTF-8"?>
<svg width="500px" height="500px" viewBox="0 0 500 500" version="1.1" xmlns="http://www.w3.org/2000/svg" xmlns:xlink="http://www.w3.org/1999/xlink">
    <title>basket</title>
    <g id="basket" stroke="none" stroke-width="1" fill="none" fill-rule="evenodd">
        <g id="shopping-basket-duotone" transform="translate(0.000000, 55.000000)" fill-rule="nonzero">
            <path d="M210.78125,6.18055556 C198.373957,-2.8417513 181.001876,-0.0979729639 171.979167,12.3090278 L79.2881944,139.756944 L147.986111,139.756944 L216.909722,44.9826389 C225.932029,32.5753456 223.188251,15.2032647 210.78125,6.18055556 Z M328.020833,12.3090278 C322.207968,4.21912173 312.508142,-0.138679034 302.599472,0.888077737 C292.690801,1.91483451 284.090601,8.16892159 280.060015,17.2788262 C276.02943,26.3887308 277.185663,36.9594535 283.090278,44.9826389 L352.013889,139.756944 L420.711806,139.756944 L328.020833,12.3090278 Z" id="Shape" fill="#A6920E" opacity="0.4"></path>
            <path d="M479.166667,139.756944 L20.8333333,139.756944 C9.32740105,139.756944 0,149.084345 0,160.590278 L0,174.479167 C0,185.985099 9.32740105,195.3125 20.8333333,195.3125 L27.7777778,195.3125 L50.4427083,353.984375 C53.3759493,374.511585 70.9569842,389.756944 91.6927083,389.756944 L408.307292,389.756944 C429.043016,389.756944 446.624051,374.511585 449.557292,353.984375 L472.222222,195.3125 L479.166667,195.3125 C490.672599,195.3125 500,185.985099 500,174.479167 L500,160.590278 C500,149.084345 490.672599,139.756944 479.166667,139.756944 Z M173.611111,313.368056 C173.611111,324.873988 164.28371,334.201388 152.777778,334.201388 C141.271846,334.201388 131.944444,324.873988 131.944444,313.368056 L131.944444,216.145833 C131.944444,204.639901 141.271845,195.3125 152.777778,195.3125 C164.28371,195.3125 173.611111,204.639901 173.611111,216.145833 L173.611111,313.368056 Z M270.833333,313.368056 C270.833333,324.873988 261.505932,334.201389 250,334.201389 C238.494068,334.201389 229.166667,324.873988 229.166667,313.368056 L229.166667,216.145833 C229.166667,204.639901 238.494068,195.3125 250,195.3125 C261.505932,195.3125 270.833333,204.639901 270.833333,216.145833 L270.833333,313.368056 Z M368.055556,313.368056 C368.055556,324.873988 358.728154,334.201388 347.222222,334.201388 C335.71629,334.201388 326.388889,324.873988 326.388889,313.368056 L326.388889,216.145833 C326.388889,204.639901 335.71629,195.3125 347.222222,195.3125 C358.728155,195.3125 368.055556,204.639901 368.055556,216.145833 L368.055556,313.368056 Z" id="Shape" fill="#0C5AAD"></path>
        </g>
    </g>
</svg>