<?xml version="1.0" encoding="UTF-8"?>
<svg width="500px" height="500px" viewBox="0 0 500 500" version="1.1" xmlns="http://www.w3.org/2000/svg" xmlns:xlink="http://www.w3.org/1999/xlink">
    <title>bicycle</title>
    <g id="bicycle" stroke="none" stroke-width="1" fill="none" fill-rule="evenodd">
        <g id="bicycle-duotone" transform="translate(0.000000, 100.000000)" fill-rule="nonzero">
            <path d="M198.907956,187.207488 L160.99064,187.207488 C158.706618,176.05355 153.407911,165.739417 145.670827,157.386895 L165.858034,124.804992 C184.123044,140.873819 195.878459,163.069553 198.907956,187.207488 Z M399.375975,99.8439264 C387.127366,99.8297373 374.981433,102.077515 363.549142,106.474259 L383.884555,139.235569 C413.813733,131.488302 444.916425,146.750651 457.101435,175.1637 C469.286445,203.576749 458.90406,236.630081 432.660918,252.97246 C406.417776,269.314839 372.174354,264.051314 352.050641,240.581928 C331.926929,217.112543 331.950481,182.466964 352.106084,159.024961 L331.75507,126.263651 C296.441427,158.804266 289.294389,211.874214 314.74142,252.597594 C340.188451,293.320974 391.020602,310.161163 435.748248,292.685959 C480.475895,275.210756 506.428035,228.370752 497.527774,181.182508 C488.627514,133.994263 447.396229,99.8258474 399.375975,99.8439264 L399.375975,99.8439264 Z M157.020281,224.648986 C143.868855,254.789266 109.584429,269.551209 78.6508764,258.392725 C47.7173233,247.23424 30.7516483,213.98514 39.8697149,182.389929 C48.9877815,150.794718 81.0600892,131.697496 113.182527,138.736349 L133.627145,105.709828 C94.831206,91.7840958 51.4654673,103.130666 24.4614671,134.272838 C-2.54253307,165.41501 -7.63330539,209.950569 11.6463363,246.383334 C30.9259781,282.816098 70.6125202,303.656212 111.550279,298.844682 C152.488038,294.033151 186.261018,264.559134 196.567863,224.648986 L157.020281,224.648986 Z" id="Shape" fill="#000000" opacity="0.4"></path>
            <path d="M386.762871,214.859594 C390.396031,220.70173 398.07169,222.502021 403.923557,218.884555 L414.531981,212.301092 C420.371352,208.665345 422.168023,200.990244 418.549142,195.140406 L302.956318,8.84555382 C299.541009,3.34509217 293.526003,0 287.051482,0 L237.129485,0 C230.236696,0 224.648986,5.58770983 224.648986,12.4804992 L224.648986,24.9609984 C224.648986,31.8537878 230.236696,37.4414977 237.129485,37.4414977 L276.638066,37.4414977 L288.26053,56.1622465 L199.687988,56.1622465 L199.687988,43.6817473 C199.687988,36.7889579 194.100278,31.201248 187.207488,31.201248 L118.985959,31.201248 C108.50234,31.201248 99.6645866,39.7815913 99.8517941,50.2652106 C100.038859,60.4670817 108.361157,68.6402091 118.564743,68.6427457 L156.575663,68.6427457 L77.6911076,196.076443 C74.1181001,201.849811 73.9510389,209.105187 77.2545272,215.036892 C80.5580156,220.968597 86.8141821,224.648986 93.6037441,224.648986 L237.129485,224.648986 C243.614191,224.648986 249.637345,221.294171 253.049922,215.780031 L320.132605,107.464899 L386.762871,214.859594 Z M226.700468,187.207488 L127.215289,187.207488 L185.156006,93.6037441 L284.648986,93.6037441 L226.700468,187.207488 Z" id="Shape" fill="#2A4099"></path>
        </g>
    </g>
</svg>