<?xml version="1.0" encoding="UTF-8"?>
<svg width="500px" height="500px" viewBox="0 0 500 500" version="1.1" xmlns="http://www.w3.org/2000/svg" xmlns:xlink="http://www.w3.org/1999/xlink">
    <title>book</title>
    <g id="book" stroke="none" stroke-width="1" fill="none" fill-rule="evenodd">
        <g id="book-duotone" transform="translate(31.000000, 0.000000)" fill-rule="nonzero">
            <path d="M93.75,437.5 C75,437.5 62.5,425 62.5,406.25 C62.5,387.5 78.125,375 93.75,375 L405.595703,375 C403.710937,390.859375 403.876953,422.246094 406.113281,437.5 L93.75,437.5 Z" id="Path" fill="#656363" opacity="0.4"></path>
            <path d="M93.75,375 L414.0625,375 C427.006674,375 437.5,364.506674 437.5,351.5625 L437.5,31.25 C437.5,13.9911016 423.508898,0 406.25,0 L93.75,0 C41.9733047,0 0,41.9733047 0,93.75 L0,406.25 C0,458.026695 41.9733047,500 93.75,500 L414.0625,500 C427.006674,500 437.5,489.506674 437.5,476.5625 L437.5,460.9375 C437.5,447.993326 427.006674,437.5 414.0625,437.5 L93.75,437.5 C75,437.5 62.5,425 62.5,406.25 C62.5,387.5 78.125,375 93.75,375 Z M125,130.859375 C125,127.623332 127.623332,125 130.859375,125 L337.890625,125 C341.126668,125 343.75,127.623332 343.75,130.859375 L343.75,150.390625 C343.75,153.626668 341.126668,156.25 337.890625,156.25 L130.859375,156.25 C127.623332,156.25 125,153.626668 125,150.390625 L125,130.859375 Z M125,193.359375 C125,190.123332 127.623332,187.5 130.859375,187.5 L337.890625,187.5 C341.126668,187.5 343.75,190.123332 343.75,193.359375 L343.75,212.890625 C343.75,216.126668 341.126668,218.75 337.890625,218.75 L130.859375,218.75 C127.623332,218.75 125,216.126668 125,212.890625 L125,193.359375 Z" id="Shape" fill="#0A7C77"></path>
        </g>
    </g>
</svg>