<?xml version="1.0" encoding="UTF-8"?>
<svg width="500px" height="500px" viewBox="0 0 500 500" version="1.1" xmlns="http://www.w3.org/2000/svg" xmlns:xlink="http://www.w3.org/1999/xlink">
    <title>box</title>
    <g id="box" stroke="none" stroke-width="1" fill="none" fill-rule="evenodd">
        <g id="box-full-duotone" transform="translate(0.000000, 50.000000)" fill-rule="nonzero">
            <path d="M342.433697,298.049922 L449.297972,267.550702 L449.297972,331.513261 C449.266127,342.938583 441.497227,352.890479 430.421217,355.694228 L261.622465,397.893916 C253.680106,399.844122 245.383856,399.844122 237.441498,397.893916 L68.8299532,355.694228 C57.71423,352.944618 49.9100329,342.964003 49.9219831,331.513261 L49.9219831,267.550702 L156.864275,298.127925 C179.173167,304.524181 194.539782,289.625585 199.531981,281.279251 L249.609984,198.127925 L299.765991,281.279251 C304.867395,289.703588 320.234009,304.446178 342.433697,298.049922 Z" id="Path" fill="#B75117" opacity="0.4"></path>
            <path d="M151.513261,112.090484 C150.41959,108.097743 149.832557,103.983276 149.765991,99.8439938 C149.765991,72.2728362 172.11683,49.9219969 199.687988,49.9219969 C227.259145,49.9219969 249.609984,72.2728362 249.609984,99.8439938 C249.564641,108.242464 247.36214,116.488415 243.213729,123.790952 L249.609984,124.570983 L370.780031,109.204368 L398.595944,32.5273011 C399.724809,29.4138696 399.56994,25.9794203 398.165439,22.9802254 C396.760938,19.9810306 394.221979,17.6630334 391.107644,16.5366615 L347.847114,0.780031201 C344.733682,-0.348834315 341.299233,-0.193965347 338.300038,1.21053566 C335.300843,2.61503667 332.982846,5.15399629 331.856474,8.26833073 L299.329173,97.5039002 C297.971919,43.4477379 254.087363,0 199.687988,0 C144.545672,0 99.8439938,44.7016786 99.8439938,99.8439938 C99.8439938,101.794072 100.312012,103.666147 100.390016,105.616225 L151.513261,112.090484 Z" id="Shape" fill="#1EA4CC"></path>
            <path d="M497.925117,212.01248 L457.75351,131.825273 C455.331277,126.974716 450.104113,124.188982 444.726989,124.882995 L249.609984,149.765991 L321.138846,268.408736 C324.125361,273.331049 330.026367,275.659554 335.569423,274.102964 L489.937598,230.031201 C493.595038,228.982478 496.599484,226.3665 498.141416,222.888118 C499.683348,219.409736 499.604134,215.426803 497.925117,212.01248 L497.925117,212.01248 Z" id="Path" fill="#CA6329"></path>
            <path d="M41.5288612,131.825273 L1.35725429,212.01248 C-0.345231412,215.398157 -0.448730105,219.36679 1.07497012,222.836603 C2.59867034,226.306415 5.59073099,228.915695 9.23556942,229.953198 L163.603744,274.024961 C169.1468,275.581551 175.047806,273.253046 178.034321,268.330733 L249.609984,149.765991 L54.4773791,124.882995 C49.1274823,124.226399 43.9429353,127.006066 41.5288612,131.825273 Z" id="Path" fill="#CA6329"></path>
        </g>
    </g>
</svg>