<?xml version="1.0" encoding="UTF-8"?>
<svg width="500px" height="500px" viewBox="0 0 500 500" version="1.1" xmlns="http://www.w3.org/2000/svg" xmlns:xlink="http://www.w3.org/1999/xlink">
    <title>bulldozer</title>
    <g id="bulldozer" stroke="none" stroke-width="1" fill="none" fill-rule="evenodd">
        <g id="snowplow-solid" transform="translate(0.000000, 57.000000)" fill-rule="nonzero">
            <path d="M467.65625,332.34375 C456.328125,321.015625 450,305.703125 450,289.6875 L450,210.3125 C450,194.296875 456.328125,178.984375 467.65625,167.65625 L496.328125,138.984375 C501.171875,134.140625 501.171875,126.171875 496.328125,121.328125 L478.671875,103.671875 C473.828125,98.828125 465.859375,98.828125 461.015625,103.671875 L432.34375,132.34375 C411.640625,153.046875 400,181.09375 400,210.390625 L400,225 L350,225 L350,185.234375 C350,178.4375 348.59375,171.796875 345.9375,165.546875 L284.765625,22.734375 C278.828125,8.90625 265.3125,0 250.234375,0 L137.5,0 C116.796875,0 100,16.796875 100,37.5 L100,125 L87.5,125 C66.796875,125 50,141.796875 50,162.5 L50,233.75 C20.546875,247.8125 0,277.65625 0,312.5 C0,360.859375 39.140625,400 87.5,400 L287.5,400 C335.859375,400 375,360.859375 375,312.5 C375,298.984375 371.71875,286.40625 366.25,275 L400,275 L400,289.609375 C400,318.90625 411.640625,346.953125 432.34375,367.65625 L461.015625,396.328125 C465.859375,401.171875 473.828125,401.171875 478.671875,396.328125 L496.328125,378.671875 C501.171875,373.828125 501.171875,365.859375 496.328125,361.015625 L467.65625,332.34375 Z M150,50 L242.03125,50 L295.625,175 L200,175 L150,125 L150,50 Z" id="Shape" fill="#B5A91B"></path>
            <path d="M287.5,350 L87.5,350 C66.796875,350 50,333.203125 50,312.5 C50,291.796875 66.796875,275 87.5,275 L287.5,275 C308.203125,275 325,291.796875 325,312.5 C325,333.203125 308.203125,350 287.5,350 Z" id="Path" fill="#FFFFFF"></path>
            <path d="M93.75,293.75 C83.359375,293.75 75,302.109375 75,312.5 C75,322.890625 83.359375,331.25 93.75,331.25 C104.140625,331.25 112.5,322.890625 112.5,312.5 C112.5,302.109375 104.140625,293.75 93.75,293.75 Z" id="Path" fill="#45410E"></path>
            <path d="M156.25,293.75 C145.859375,293.75 137.5,302.109375 137.5,312.5 C137.5,322.890625 145.859375,331.25 156.25,331.25 C166.640625,331.25 175,322.890625 175,312.5 C175,302.109375 166.640625,293.75 156.25,293.75 Z" id="Path" fill="#45410E"></path>
            <path d="M218.75,293.75 C208.359375,293.75 200,302.109375 200,312.5 C200,322.890625 208.359375,331.25 218.75,331.25 C229.140625,331.25 237.5,322.890625 237.5,312.5 C237.5,302.109375 229.140625,293.75 218.75,293.75 Z" id="Path" fill="#45410E"></path>
            <path d="M281.25,293.75 C270.859375,293.75 262.5,302.109375 262.5,312.5 C262.5,322.890625 270.859375,331.25 281.25,331.25 C291.640625,331.25 300,322.890625 300,312.5 C300,302.109375 291.640625,293.75 281.25,293.75 Z" id="Path" fill="#45410E"></path>
        </g>
    </g>
</svg>