<?xml version="1.0" encoding="UTF-8"?>
<svg width="500px" height="500px" viewBox="0 0 500 500" version="1.1" xmlns="http://www.w3.org/2000/svg" xmlns:xlink="http://www.w3.org/1999/xlink">
    <title>bus</title>
    <g id="bus" stroke="none" stroke-width="1" fill="none" fill-rule="evenodd">
        <g id="bus-duotone" fill-rule="nonzero">
            <path d="M343.75,437.5 L343.75,468.75 C343.75,486.008898 357.741102,500 375,500 L406.25,500 C423.508898,500 437.5,486.008898 437.5,468.75 L437.5,437.5 L343.75,437.5 Z" id="Path" fill="#000000" opacity="0.594624978"></path>
            <path d="M62.5,468.75 C62.5,486.008898 76.4911016,500 93.75,500 L125,500 C142.258898,500 156.25,486.008898 156.25,468.75 L156.25,437.5 L62.5,437.5 L62.5,468.75 Z" id="Path" fill="#000000" opacity="0.594624978"></path>
            <path d="M125,281.25 L375,281.25 C392.258898,281.25 406.25,267.258898 406.25,250 L406.25,125 C406.25,107.741102 392.258898,93.75 375,93.75 L125,93.75 C107.741102,93.75 93.75,107.741102 93.75,125 L93.75,250 C93.75,267.258898 107.741102,281.25 125,281.25 Z" id="Path" fill="#CF8824" opacity="0.954598403"></path>
            <path d="M476.5625,125 L468.75,125 L468.75,78.125 C468.75,34.375 371.875,0 250,0 C128.125,0 31.25,34.375 31.25,78.125 L31.25,125 L23.4375,125 C10.4933262,125 0,135.493326 0,148.4375 L0,226.5625 C0,239.506674 10.4933262,250 23.4375,250 L31.25,250 L31.25,406.25 C31.25,423.508898 45.2411016,437.5 62.5,437.5 L437.5,437.5 C454.758898,437.5 468.75,423.508898 468.75,406.25 L468.75,250 L476.5625,250 C489.506674,250 500,239.506674 500,226.5625 L500,148.4375 C500,135.493326 489.506674,125 476.5625,125 Z M93.75,125 C93.75,107.741102 107.741102,93.75 125,93.75 L375,93.75 C392.258898,93.75 406.25,107.741102 406.25,125 L406.25,250 C406.25,267.258898 392.258898,281.25 375,281.25 L125,281.25 C107.741102,281.25 93.75,267.258898 93.75,250 L93.75,125 Z" id="Shape" fill="#F8C379"></path>
            <path d="M109.375,390.625 C92.1161016,390.625 78.125,376.633898 78.125,359.375 C78.125,342.116102 92.1161016,328.125 109.375,328.125 C126.633898,328.125 140.625,342.116102 140.625,359.375 C140.625,376.633898 126.633898,390.625 109.375,390.625 Z" id="Path" fill="#DD7A3E"></path>
            <path d="M390.625,390.625 C373.366102,390.625 359.375,376.633898 359.375,359.375 C359.375,342.116102 373.366102,328.125 390.625,328.125 C407.883898,328.125 421.875,342.116102 421.875,359.375 C421.875,376.633898 407.883898,390.625 390.625,390.625 Z" id="Path" fill="#DD7A3E"></path>
        </g>
    </g>
</svg>