<?xml version="1.0" encoding="UTF-8"?>
<svg width="500px" height="500px" viewBox="0 0 500 500" version="1.1" xmlns="http://www.w3.org/2000/svg" xmlns:xlink="http://www.w3.org/1999/xlink">
    <title>car</title>
    <g id="car" stroke="none" stroke-width="1" fill="none" fill-rule="evenodd">
        <g id="car-side-duotone" transform="translate(0.000000, 75.000000)" fill-rule="nonzero">
            <path d="M288.46875,50 L218.75,50 L218.75,125 L348.4375,125 L288.46875,50 Z M91.3515625,125 L181.25,125 L181.25,50 L121.351562,50 L91.3515625,125 Z" id="Shape" fill="#E7E7E7"></path>
            <path d="M112.5,225 C77.9822031,225 50,252.982203 50,287.5 C50,322.017797 77.9822031,350 112.5,350 C147.017797,350 175,322.017797 175,287.5 C175,270.923969 168.415197,255.02685 156.694174,243.305826 C144.97315,231.584803 129.076031,225 112.5,225 Z" id="Path" fill="#000000" opacity="0.738649706"></path>
            <path d="M387.5,225 C352.982203,225 325,252.982203 325,287.5 C325,322.017797 352.982203,350 387.5,350 C422.017797,350 450,322.017797 450,287.5 C450,252.982203 422.017797,225 387.5,225 Z" id="Path" fill="#000000" opacity="0.738649706"></path>
            <path d="M12.5,274.99999 L25.890625,274.99999 C32.0833758,231.928501 68.9855862,199.952556 112.5,199.952556 C156.014414,199.952556 192.916624,231.928501 199.109375,274.99999 L300.890625,274.99999 C307.083376,231.928501 343.985586,199.952556 387.5,199.952556 C431.014414,199.952556 467.916624,231.928501 474.109375,274.99999 L487.5,274.99999 C494.403559,274.99999 500,269.403559 500,262.49999 L500,199.99999 C500,158.578644 466.421356,124.99999 425,124.99999 L412.5,124.99999 L327.515625,18.75 C318.019814,6.88973019 303.646424,-0.00949723844 288.453125,-9.79233169e-06 L121.351563,-9.79233169e-06 C100.90724,-9.79233169e-06 82.5228367,12.4477379 74.9296875,31.4296875 L37.5,126.765625 C15.464147,132.412478 0.0397098561,152.252161 0,174.99999 L0,262.49999 C0,269.403559 5.59644063,274.99999 12.5,274.99999 Z M218.75,50 L288.46875,50 L348.4375,125 L218.75,125 L218.75,50 Z M121.351562,50 L181.25,50 L181.25,125 L91.3515625,125 L121.351562,50 Z" id="Shape" fill="#002955"></path>
        </g>
    </g>
</svg>