<?xml version="1.0" encoding="UTF-8"?>
<svg width="500px" height="500px" viewBox="0 0 500 500" version="1.1" xmlns="http://www.w3.org/2000/svg" xmlns:xlink="http://www.w3.org/1999/xlink">
    <title>carrot</title>
    <g id="carrot" stroke="none" stroke-width="1" fill="none" fill-rule="evenodd">
        <g id="carrot-duotone" fill-rule="nonzero">
            <path d="M291.162109,152.929687 C239.697266,127.832031 179.345703,142.675781 144.482422,184.960937 L198.388672,238.867187 C202.661485,242.738711 204.454894,248.64873 203.054164,254.241903 C201.653435,259.835076 197.286248,264.202263 191.693075,265.602993 C186.099902,267.003722 180.189883,265.210313 176.318359,260.9375 L127.294922,211.914062 L2.19726563,468.457031 C-0.733218561,474.535001 -0.733218561,481.617343 2.19726563,487.695312 C7.52951343,498.540644 20.6245965,503.036622 31.4941406,497.753906 L161.962891,434.082031 L113.916016,386.035156 C110.962555,383.122725 109.299824,379.147914 109.299824,375 C109.299824,370.852086 110.962555,366.877275 113.916016,363.964844 C120.028089,357.912752 129.874255,357.912752 135.986328,363.964844 L191.650391,419.628906 L291.259766,370.996094 C332.931836,350.641364 359.353231,308.309922 359.332474,261.932384 C359.311692,215.554846 332.852394,173.247086 291.162109,152.929687 Z" id="Path" fill="#FC6200" opacity="0.697830516"></path>
            <path d="M381.103516,118.847656 C420.849609,99.8046875 467.822266,109.667969 499.951172,148.4375 C459.326172,197.558594 394.970703,199.707031 351.611328,156.152344 L343.798828,148.339844 C300.244141,104.980469 302.392578,40.7226562 351.5625,0 C390.332031,32.1289062 400.195312,79.1015625 381.152344,118.847656 L381.103516,118.847656 Z" id="Path" fill="#6FC47D"></path>
        </g>
    </g>
</svg>