<?xml version="1.0" encoding="UTF-8"?>
<svg width="500px" height="500px" viewBox="0 0 500 500" version="1.1" xmlns="http://www.w3.org/2000/svg" xmlns:xlink="http://www.w3.org/1999/xlink">
    <title>cart</title>
    <g id="cart" stroke="none" stroke-width="1" fill="none" fill-rule="evenodd">
        <g id="shopping-cart-duotone" transform="translate(0.000000, 27.000000)" fill-rule="nonzero">
            <path d="M479.166667,55.5555529 L138.203125,55.5555529 L183.654514,277.777778 L438.125,277.777778 C447.85074,277.777778 456.281628,271.046288 458.4375,261.5625 L499.470486,81.0069444 C502.019502,69.7889109 494.993466,58.6280843 483.776042,56.0763889 C482.264144,55.7294881 480.717851,55.5555529 479.166667,55.5555529 Z" id="Path" fill="#FF5151" opacity="0.4"></path>
            <path d="M189.340278,305.555556 L422.34375,305.555556 C428.680198,305.556332 434.671881,308.440835 438.624458,313.393381 C442.577036,318.345927 444.060829,324.828131 442.65625,331.006944 L437.864583,352.083333 C456.941261,361.322068 467.832556,381.856395 464.781239,402.831697 C461.729921,423.806999 445.439511,440.387152 424.521257,443.807747 C403.603003,447.228342 382.879875,436.700717 373.306293,417.789864 C363.732711,398.879011 367.515988,375.945068 382.65625,361.111111 L200.677083,361.111111 C215.596463,375.724806 219.514491,398.234806 210.41017,417.03 C201.305848,435.825193 181.213977,446.704888 160.498348,444.057119 C139.782719,441.40935 123.073238,425.825887 118.988992,405.344996 C114.904746,384.864105 124.358557,364.063227 142.473958,353.671875 L81.4930556,55.5555556 L20.8333333,55.5555556 C9.32740105,55.5555556 0,46.2281545 0,34.7222222 L0,20.8333333 C0,9.32740105 9.32740105,0 20.8333333,0 L109.835069,0 C119.71753,0.0177332708 128.227736,6.97601482 130.208333,16.6579861 L189.340278,305.555556 Z" id="Path" fill="#E14C4C"></path>
        </g>
    </g>
</svg>