<?xml version="1.0" encoding="UTF-8"?>
<svg width="500px" height="500px" viewBox="0 0 500 500" version="1.1" xmlns="http://www.w3.org/2000/svg" xmlns:xlink="http://www.w3.org/1999/xlink">
    <title>cat</title>
    <g id="cat" stroke="none" stroke-width="1" fill="none" fill-rule="evenodd">
        <g id="cat-duotone" transform="translate(0.000000, 16.000000)" fill-rule="nonzero">
            <path d="M437.5,62.5 L375,62.5 L312.5,0 L312.5,131.25 C312.5,183.026695 354.473305,225 406.25,225 C458.026695,225 500,183.026695 500,131.25 L500,0 L437.5,62.5 Z M367.1875,140.625 C358.558051,140.625 351.5625,133.629449 351.5625,125 C351.5625,116.370551 358.558051,109.375 367.1875,109.375 C375.816949,109.375 382.8125,116.370551 382.8125,125 C382.8125,133.629449 375.816949,140.625 367.1875,140.625 Z M445.3125,140.625 C436.683051,140.625 429.6875,133.629449 429.6875,125 C429.6875,116.370551 436.683051,109.375 445.3125,109.375 C453.941949,109.375 460.9375,116.370551 460.9375,125 C460.9375,133.629449 453.941949,140.625 445.3125,140.625 Z M283.779297,156.25 C272.459813,156.229716 261.15918,157.173886 250,159.072266 L250,234.375 L207.861328,171.162109 C192.290642,177.606243 177.704264,186.209477 164.53125,196.71875 L187.5,265.625 L127.988281,235.869141 L125,234.375 L125,156.25 C124.946173,104.495617 83.0043831,62.5538268 31.25,62.5 C13.9911016,62.5 -2.77555756e-14,76.4911016 -2.77555756e-14,93.75 C-2.77555756e-14,111.008898 13.9911016,125 31.25,125 C48.5088984,125 62.5,138.991102 62.5,156.25 L62.5,406.25 C62.5323025,440.754408 90.4955921,468.717698 125,468.75 L296.875,468.75 C305.504449,468.75 312.5,461.754449 312.5,453.125 L312.5,437.5 C312.5,420.241102 298.508898,406.25 281.25,406.25 L250,406.25 L375,312.5 L375,453.125 C375,461.754449 381.995551,468.75 390.625,468.75 L421.875,468.75 C430.504449,468.75 437.5,461.754449 437.5,453.125 L437.5,251.816406 C427.315142,254.621434 416.813157,256.111403 406.25,256.25 C345.888672,256.25 295.390625,213.232422 283.779297,156.25 L283.779297,156.25 Z" id="Shape" fill="#D4781A" opacity="0.4"></path>
            <path d="M127.988281,235.869141 L187.5,265.625 L164.53125,196.71875 C150.540229,207.953675 138.233815,221.138178 127.988281,235.869141 L127.988281,235.869141 Z M250,234.375 L250,159.072266 C235.542034,161.496845 221.405544,165.552691 207.861328,171.162109 L250,234.375 Z" id="Shape" fill="#D4781A"></path>
            <path d="M367.1875,109.375 C358.558051,109.375 351.5625,116.370551 351.5625,125 C351.5625,133.629449 358.558051,140.625 367.1875,140.625 C375.816949,140.625 382.8125,133.629449 382.8125,125 C382.8125,116.370551 375.816949,109.375 367.1875,109.375 Z" id="Path" fill="#4C4C4C"></path>
            <path d="M445.3125,109.375 C436.683051,109.375 429.6875,116.370551 429.6875,125 C429.6875,133.629449 436.683051,140.625 445.3125,140.625 C453.941949,140.625 460.9375,133.629449 460.9375,125 C460.9375,116.370551 453.941949,109.375 445.3125,109.375 Z" id="Path" fill="#4C4C4C"></path>
        </g>
    </g>
</svg>