<?xml version="1.0" encoding="UTF-8"?>
<svg width="500px" height="500px" viewBox="0 0 500 500" version="1.1" xmlns="http://www.w3.org/2000/svg" xmlns:xlink="http://www.w3.org/1999/xlink">
    <title>dog</title>
    <g id="dog" stroke="none" stroke-width="1" fill="none" fill-rule="evenodd">
        <g id="dog-duotone" transform="translate(0.000000, 16.000000)" fill-rule="nonzero">
            <polygon id="Path" fill="#E14C4C" opacity="0.942928761" points="406.25 240.234375 260.742188 187.5 281.25 162.109375 406.25 207.03125"></polygon>
            <path d="M93.75,187.5 C76.4911016,187.5 62.5,173.508898 62.5,156.25 C62.5,138.991102 48.5088984,125 31.25,125 C13.9911016,125 0,138.991102 0,156.25 C0,196.933594 26.2011719,231.298828 62.5,244.238281 L62.5,453.125 C62.5,461.754449 69.4955508,468.75 78.125,468.75 L140.625,468.75 C149.254449,468.75 156.25,461.754449 156.25,453.125 L156.25,343.75 L312.5,343.75 L312.5,453.125 C312.5,461.754449 319.495551,468.75 328.125,468.75 L390.625,468.75 C399.254449,468.75 406.25,461.754449 406.25,453.125 L406.25,239.794922 L259.814453,187.5 L93.75,187.5 Z M484.375,62.5 L421.875,62.5 L414.882812,48.5253906 C409.589803,37.9385984 398.769815,31.2507722 386.933594,31.25 L334.570312,31.25 L307.929688,4.609375 C298.076172,-5.234375 281.25,1.73828125 281.25,15.625 L281.25,161.982422 L406.25,206.621094 L406.25,171.875 L437.5,171.875 C472.017797,171.875 500,143.892797 500,109.375 L500,78.125 C500,69.4955508 493.004449,62.5 484.375,62.5 Z M375,93.75 C366.370551,93.75 359.375,86.7544492 359.375,78.125 C359.375,69.4955508 366.370551,62.5 375,62.5 C383.629449,62.5 390.625,69.4955508 390.625,78.125 C390.625,86.7544492 383.629449,93.75 375,93.75 Z" id="Shape" fill="#747474"></path>
        </g>
    </g>
</svg>