<?xml version="1.0" encoding="UTF-8"?>
<svg width="500px" height="500px" viewBox="0 0 500 500" version="1.1" xmlns="http://www.w3.org/2000/svg" xmlns:xlink="http://www.w3.org/1999/xlink">
    <title>duck</title>
    <g id="duck" stroke="none" stroke-width="1" fill="none" fill-rule="evenodd">
        <g id="duck-duotone" transform="translate(0.000000, 32.000000)" fill-rule="nonzero">
            <path d="M500,93.5672515 C500,145.243018 458.108515,187.134503 406.432749,187.134503 L380.116959,187.134503 C416.452242,174.288499 437.621832,134.307992 437.621832,93.5672515 L500,93.5672515 Z" id="Path" fill="#D4781A"></path>
            <path d="M392.11501,239.210526 C381.53468,231.644433 375.252835,219.440018 375.243665,206.432749 C375.16652,199.68617 376.845959,193.03559 380.116959,187.134503 C416.452242,174.288499 437.621832,134.307992 437.621832,93.5672515 C437.621832,41.8914854 395.730347,5.54029424e-14 344.054581,5.54029424e-14 C292.378815,5.54029424e-14 250.487329,41.8914854 250.487329,93.5672515 C250.482498,115.175609 258.111331,136.091037 272.02729,152.621832 C278.180109,159.840675 281.59604,168.994681 281.676413,178.479532 C281.676414,200.48099 263.843563,218.318205 241.842105,218.323587 L220.701754,218.323587 C189.990253,218.323587 142.553606,205.45809 121.598441,183.001949 C111.832359,172.51462 94.5419103,179.502924 94.5419103,193.596491 C94.547293,276.155487 161.476092,343.079922 244.035088,343.079922 L212.846004,343.079922 C138.77193,343.079922 77.6900585,289.044834 65.8479532,218.323587 L16.7251462,218.323587 C7.79727096,218.323587 0.360623782,225.789474 0.974658869,234.649123 C9.37621832,347.602339 103.664717,436.647173 218.74269,436.647173 L323.226121,436.647173 C377.329435,436.647173 431.22807,393.255361 436.988304,339.463938 C441.318991,300.381096 424.147406,262.0173 392.11501,239.210526 Z M344.054581,109.161793 C335.441953,109.161793 328.460039,102.179879 328.460039,93.5672515 C328.460039,84.9546238 335.441953,77.9727096 344.054581,77.9727096 C352.667209,77.9727096 359.649123,84.9546238 359.649123,93.5672515 C359.649123,102.179879 352.667209,109.161793 344.054581,109.161793 Z" id="Shape" fill="#FFC900"></path>
        </g>
    </g>
</svg>