<?xml version="1.0" encoding="UTF-8"?>
<svg width="500px" height="500px" viewBox="0 0 500 500" version="1.1" xmlns="http://www.w3.org/2000/svg" xmlns:xlink="http://www.w3.org/1999/xlink">
    <title>elephant</title>
    <g id="elephant" stroke="none" stroke-width="1" fill="none" fill-rule="evenodd">
        <g id="elephant-duotone" transform="translate(0.000000, 50.000000)" fill="#000000" fill-rule="nonzero">
            <path d="M400,25.8984375 L343.242188,25.8984375 C332.811373,7.6458367 312.063518,-2.11619179 291.351128,1.48328811 C270.638739,5.08276801 254.400851,21.2723235 250.739644,41.9738908 C247.078438,62.675458 256.778574,83.4523218 275,93.9375 L275,150.859375 C275.00304,163.69011 284.718763,174.43547 297.484375,175.726563 L318.75,175.726563 C322.20178,175.726563 325,178.524783 325,181.976563 L325,194.476563 C325,197.928342 322.20178,200.726563 318.75,200.726563 L300,200.820313 C272.396474,200.794471 250.025842,178.423839 250,150.820313 L250,106.5 C234.168191,92.3398908 225.082933,72.1308698 225,50.890625 C225.082698,42.3537789 226.642167,33.8956397 229.609375,25.890625 L150,25.890625 C67.1875,25.890625 0,93.078125 0,175.84375 L0,263.34375 C0,270.247309 5.59644063,275.84375 12.5,275.84375 L25,275.84375 L25,388.28125 C25,395.184809 30.5964406,400.78125 37.5,400.78125 L87.5,400.78125 C94.4035594,400.78125 100,395.184809 100,388.28125 L100,304.054688 C125.273438,317.757812 155.25,325.78125 187.5,325.78125 C219.75,325.78125 249.726562,317.734375 275,304.03125 L275,388.28125 C275,395.184809 280.596441,400.78125 287.5,400.78125 L337.5,400.78125 C344.403559,400.78125 350,395.184809 350,388.28125 L350,225.835938 L400,225.835938 C418.3125,225.835938 435.242188,220.554688 450,211.976563 L450,288 C450.044688,294.925827 444.533254,300.611014 437.609375,300.78125 C430.720803,300.84201 425.081537,295.318045 425,288.429688 L425,288.320312 C425,281.460938 419.03125,275.820312 412.171875,275.820312 L387.5,275.820312 C380.596441,275.820312 375,281.416753 375,288.320312 C375.022042,306.024397 382.544941,322.890045 395.703108,334.734779 C408.861276,346.579512 426.422298,352.293935 444.03125,350.460937 C476.5625,347.140625 500,317.296875 500,284.625 L500,125.867188 C499.982745,70.6509168 455.216273,25.8984348 400,25.8984375 Z M412.5,125.898438 C405.596441,125.898438 400,120.301997 400,113.398438 C400,106.494878 405.596441,100.898438 412.5,100.898438 C419.403559,100.898438 425,106.494878 425,113.398438 C424.982772,120.28979 419.391374,125.867209 412.5,125.867187 L412.5,125.898438 Z" id="Shape" opacity="0.4"></path>
            <path d="M412.5,100.78125 C405.596441,100.78125 400,106.377691 400,113.28125 C400,120.184809 405.596441,125.78125 412.5,125.78125 C419.403559,125.78125 425,120.184809 425,113.28125 C425,106.377691 419.403559,100.78125 412.5,100.78125 Z M275,150.90625 L275,93.96875 C263.524644,87.3594771 255.146045,76.4609655 251.708577,63.6722947 C248.271109,50.8836239 250.056551,37.2531188 256.671875,25.78125 L229.609375,25.90625 C226.64308,33.9115157 225.08364,42.3694946 225,50.90625 C225.078513,72.1519457 234.164156,92.3675012 250,106.53125 L250,150.90625 C250.034292,177.212545 270.425701,199.00343 296.671875,200.78125 L318.75,200.78125 C322.20178,200.78125 325,197.98303 325,194.53125 L325,182.03125 C325,178.57947 322.20178,175.78125 318.75,175.78125 L297.484375,175.78125 C284.715788,174.489856 274.99903,163.739975 275,150.90625 Z" id="Shape"></path>
        </g>
    </g>
</svg>