<?xml version="1.0" encoding="UTF-8"?>
<svg width="500px" height="500px" viewBox="0 0 500 500" version="1.1" xmlns="http://www.w3.org/2000/svg" xmlns:xlink="http://www.w3.org/1999/xlink">
    <title>fries</title>
    <g id="fries" stroke="none" stroke-width="1" fill="none" fill-rule="evenodd">
        <g id="french-fries-duotone" transform="translate(63.000000, 0.000000)" fill-rule="nonzero">
            <path d="M103.095703,0.29296875 C100.71263,0.753828597 98.4673442,1.75618823 96.5332031,3.22265625 L68.6914062,24.3164062 C63.9766911,27.8873228 61.6822869,33.8142187 62.7636719,39.6289062 L98.7988281,232.226563 C103.974609,239.638672 112.949219,246.748047 125,252.490234 L125,32.4121094 L121.328125,12.7734375 C119.738982,4.29281858 111.576641,-1.2944727 103.095703,0.29296875 Z M210.126953,17.2851562 L178.876953,1.66015625 C174.033871,-0.767558709 168.278856,-0.513345922 163.668694,2.33194148 C159.058533,5.17722888 156.251197,10.2075054 156.25,15.625 L156.25,262.490234 C176.871726,266.689512 198.128274,266.689512 218.75,262.490234 L218.75,31.25 C218.748694,25.3386664 215.411514,19.9341725 210.126953,17.2851562 L210.126953,17.2851562 Z M20.1269531,78.8085938 C14.9376324,77.2512646 9.31193946,78.4933493 5.26074739,82.0908715 C1.20955533,85.6883938 -0.688836904,91.127815 0.244140625,96.4648438 L16.1621094,187.5 L48.828125,187.5 C52.34375,187.5 55.6640625,188.476562 58.9355469,189.208984 L39.4042969,84.5605469 L20.1269531,78.8085938 Z M299.560547,31.5136719 C297.173446,31.1101548 294.725891,31.2537358 292.402344,31.9335937 L258.925781,41.9921875 C254.785156,43.2324219 251.923828,46.3964844 250.009766,50.1269531 L250.009766,252.490234 C267.148438,244.306641 278.476562,233.408203 280.810547,222.8125 C281.201172,221.064453 282.236328,219.667969 282.822266,218.007813 L312.265625,49.5898438 C313.747745,41.0900747 308.059969,32.997781 299.560547,31.5136719 Z M362.060547,78.3886719 C359.673446,77.9851548 357.225891,78.1287358 354.902344,78.8085938 L337.998047,83.8574219 L319.6875,188.603516 C321.875,188.291016 323.916016,187.509766 326.162109,187.509766 L358.847656,187.509766 L374.765625,96.4648437 C376.247745,87.9650747 370.559969,79.872781 362.060547,78.3886719 Z" id="Shape" fill="#FFD85C" opacity="0.79440918"></path>
            <path d="M0,234.375 C0,225.745551 6.99555078,218.75 15.625,218.75 L48.828125,218.75 C55.5859375,218.75 62.2070312,222.890625 63.6621094,229.492188 C72.0605469,267.578125 124.296875,296.875 187.480469,296.875 C250.664063,296.875 302.910156,267.578125 311.308594,229.492188 C312.763672,222.919922 319.384766,218.75 326.142578,218.75 L359.345703,218.75 C367.975152,218.75 374.970703,225.745551 374.970703,234.375 C374.970703,235.511378 374.844601,236.64425 374.599609,237.753906 L321.757812,475.585938 C318.560593,489.847839 305.904941,499.988585 291.289062,500.00001 L83.7207031,500.00001 C69.0865431,500.011437 56.404344,489.865677 53.203125,475.585938 L0.37109375,237.773438 C0.124852235,236.65738 0,235.5179 0,234.375 Z" id="Path" fill="#E14C4C"></path>
        </g>
    </g>
</svg>