<?xml version="1.0" encoding="UTF-8"?>
<svg width="500px" height="500px" viewBox="0 0 500 500" version="1.1" xmlns="http://www.w3.org/2000/svg" xmlns:xlink="http://www.w3.org/1999/xlink">
    <title>gifts</title>
    <g id="gifts" stroke="none" stroke-width="1" fill="none" fill-rule="evenodd">
        <g id="gifts-duotone" transform="translate(0.000000, 50.000000)" fill-rule="nonzero">
            <path d="M175,200 L175,268.75 L318.75,268.75 L318.75,200 L267.28125,200 C254.56631,200.025747 242.261949,195.500292 232.59375,187.242188 L232.554688,187.242188 L232.507812,187.195313 L232.351562,187.0625 L232.195313,186.921875 C228.238478,183.426395 224.767531,179.416807 221.875,175 L200,175 C186.192881,175 175,186.192881 175,200 L175,200 Z M356.25,400 L475,400 C488.807119,400 500,388.807119 500,375 L500,306.25 L356.25,306.25 L356.25,400 Z M475,175 L453.125,175 C450.227988,179.394782 446.757226,183.383137 442.804688,186.859375 L442.648437,187 L442.492187,187.132812 L442.4375,187.179687 L442.398437,187.179687 C432.741159,195.458618 420.438957,200.00647 407.71875,200 L356.25,200 L356.25,268.75 L500,268.75 L500,200 C500,186.192881 488.807119,175 475,175 Z M175,306.25 L175,375 C175,388.807119 186.192881,400 200,400 L318.75,400 L318.75,306.25 L175,306.25 Z" id="Shape" fill="#226D6B" opacity="0.4"></path>
            <path d="M21.09375,40.40625 L28.359375,30.25 C32.3711169,24.6419335 40.1663623,23.3415607 45.78125,27.34375 L70.859375,45.15625 L61.875,21.265625 C60.6842196,18.1693006 60.7822701,14.725179 62.1472771,11.7016151 C63.5122841,8.67805119 66.0306776,6.32660872 69.140625,5.171875 L80.859375,0.796875 C83.9672343,-0.365882903 87.4098885,-0.245206917 90.428703,1.1323104 C93.4475176,2.50982772 95.7947387,5.03113367 96.953125,8.140625 L112.5,49.625 L128.046875,8.21875 C129.205261,5.10925867 131.552482,2.58795272 134.571297,1.2104354 C137.590112,-0.167081917 141.032766,-0.287757903 144.140625,0.875 L155.859375,5.25 C158.968866,6.40838633 161.490172,8.75560743 162.86769,11.774422 C164.245207,14.7932365 164.365883,18.2358907 163.203125,21.34375 L154.21875,45.25 L179.21875,27.359375 C181.906483,25.4149926 185.26028,24.6264399 188.532848,25.169422 C191.805416,25.7124042 194.724844,27.5418058 196.640625,30.25 L203.90625,40.40625 C205.845649,43.0928991 206.631273,46.4430441 206.088438,49.7117876 C205.545604,52.9805312 203.719309,55.8969195 201.015625,57.8125 L177.054688,75 L47.9453125,75 L23.984375,57.8125 C18.3913611,53.796767 17.098927,46.014218 21.09375,40.40625 Z" id="Path" fill="#007AFF"></path>
            <path d="M356.25,268.75 L356.25,200 L407.71875,200 C420.43369,200.025747 432.738051,195.500292 442.40625,187.242187 L442.445312,187.242187 L442.5,187.195312 L442.65625,187.0625 L442.8125,186.921875 C455.386366,176.016403 462.576137,160.167524 462.5,143.523437 C462.48654,130.587376 458.168524,118.023627 450.226562,107.8125 C445.198194,101.354726 438.768063,96.124067 431.421875,92.515625 C423.566936,88.6561577 414.923638,86.6718363 406.171875,86.7179371 C383.25,86.7179371 366.664062,101.3125 356.78125,113.554687 C347.796875,124.703125 341.40625,137.1875 337.5,146.09375 C333.59375,137.140625 327.164062,124.59375 318.164062,113.46875 C308.304688,101.28125 291.742188,86.75 268.828125,86.75 C260.080697,86.6860709 251.437619,88.6516225 243.578125,92.4921875 C236.229536,96.107366 229.799202,101.346205 224.773438,107.8125 C216.831476,118.023627 212.51346,130.587376 212.5,143.523437 C212.434243,160.140738 219.610584,175.962345 232.15625,186.859375 L232.3125,187 L232.46875,187.132812 L232.515625,187.179687 L232.554688,187.179687 C242.224203,195.469131 254.54492,200.017679 267.28125,200 L318.75,200 L318.75,268.75 L175,268.75 L175,306.25 L318.75,306.25 L318.75,400 L356.25,400 L356.25,306.25 L500,306.25 L500,268.75 L356.25,268.75 Z" id="Shape" fill="#0B6663"></path>
            <path d="M406.171875,124.492188 C420,124.492188 425,135.898438 425,143.523438 C425.044211,149.279563 422.524612,154.756829 418.125,158.46875 L418.078125,158.515625 C415.179019,160.951927 411.505491,162.273399 407.71875,162.242188 L371.40625,162.242188 C378.28125,146.28125 391.5625,124.492188 406.171875,124.492188 L406.171875,124.492188 Z" id="Path" fill="#FFFFFF"></path>
            <path d="M267.28125,162.242188 C263.494509,162.273399 259.820981,160.951927 256.921875,158.515625 L256.875,158.46875 C252.475388,154.756829 249.955789,149.279563 250,143.523438 C250,135.898438 255,124.492188 268.828125,124.492188 C283.4375,124.492188 296.640625,146.039062 303.59375,162.242188 L267.28125,162.242188 Z" id="Path" fill="#FFFFFF"></path>
            <path d="M187.96875,151.65625 C189.453125,127.59375 201.484375,103.84375 222.34375,89.3125 C218.294105,80.6188868 209.590444,75.0436746 200,75 L25,75 C11.1928813,75 0,86.1928813 0,100 L0,375 C0,388.807119 11.1928813,400 25,400 L156.953125,400 C152.459823,392.430554 150.060124,383.802424 150,375 L150,200 C150.085797,177.089744 165.731444,157.168908 187.96875,151.65625 Z" id="Path" fill="#007AFF" opacity="0.605655363"></path>
        </g>
    </g>
</svg>