<?xml version="1.0" encoding="UTF-8"?>
<svg width="500px" height="500px" viewBox="0 0 500 500" version="1.1" xmlns="http://www.w3.org/2000/svg" xmlns:xlink="http://www.w3.org/1999/xlink">
    <title>gift</title>
    <g id="gift" stroke="none" stroke-width="1" fill="none" fill-rule="evenodd">
        <g id="gift-duotone" transform="translate(0.000000, 31.000000)" fill-rule="nonzero">
            <path d="M218.75,281.25 L218.75,437.5 L62.5,437.5 C45.2411016,437.5 31.25,423.508898 31.25,406.25 L31.25,281.25 L218.75,281.25 Z M218.75,125 L31.25,125 C13.9911016,125 0,138.991102 0,156.25 L0,234.375 C0,243.004449 6.99555078,250 15.625,250 L218.75,250 L218.75,125 Z M468.75,125 L281.25,125 L281.25,250 L484.375,250 C493.004449,250 500,243.004449 500,234.375 L500,156.25 C500,138.991102 486.008898,125 468.75,125 Z M281.25,437.5 L437.5,437.5 C454.758898,437.5 468.75,423.508898 468.75,406.25 L468.75,281.25 L281.25,281.25 L281.25,437.5 Z" id="Shape" fill="#6F0089" opacity="0.561000219"></path>
            <path d="M218.75,437.5 L281.25,437.5 L281.25,281.25 L218.75,281.25 L218.75,437.5 Z M351.113281,0 C310.273438,0 283.867188,20.8007812 250,66.6992188 C216.132812,20.8007812 189.726562,0 148.886719,0 C101.279297,0 62.5,38.5742188 62.5,85.9375 C62.5709352,99.5715895 65.9737374,112.981648 72.4121094,125 L148.789062,125 C127.215439,125 109.726563,107.511123 109.726563,85.9375 C109.726563,64.363877 127.215439,46.875 148.789062,46.875 C168.320312,46.875 182.753906,50.0976562 233.310547,125 L218.75,125 L218.75,250 L281.25,250 L281.25,125 L266.601562,125 C317.060547,50.2929688 331.054688,46.875 351.123047,46.875 C372.69667,46.875 390.185547,64.363877 390.185547,85.9375 C390.185547,107.511123 372.69667,125 351.123047,125 L427.597656,125 C433.988373,112.96366 437.385,99.5647343 437.5,85.9375 C437.5,38.5742188 398.720703,0 351.113281,0 L351.113281,0 Z" id="Shape" fill="#65077C"></path>
        </g>
    </g>
</svg>