<?xml version="1.0" encoding="UTF-8"?>
<svg width="500px" height="500px" viewBox="0 0 500 500" version="1.1" xmlns="http://www.w3.org/2000/svg" xmlns:xlink="http://www.w3.org/1999/xlink">
    <title>hamburger</title>
    <g id="hamburger" stroke="none" stroke-width="1" fill="none" fill-rule="evenodd">
        <g id="hamburger-duotone" transform="translate(0.000000, 277.000000)" fill="#7A3C29" fill-rule="nonzero">
            <path d="M500,47.625 C500,73.5133476 479.013348,94.5 453.125,94.5 L46.875,94.5 C20.9866524,94.5 0,73.5133476 0,47.625 C0,21.7366524 20.9866524,0.75 46.875,0.75 L453.125,0.75 C479.013348,0.75 500,21.7366524 500,47.625 Z" id="Path"></path>
        </g>
        <rect id="Rectangle" fill="#EDD95A" x="24" y="248" width="453" height="24" rx="3"></rect>
        <path d="M57.265625,244.5 L442.734375,244.5 C476.494141,244.5 496.074219,201.628906 476.738281,170.398438 C437.5,107 351.123047,57.0976562 250,57 C148.886719,57.0976562 62.5,107 23.2617187,170.388672 C3.90625,201.619141 23.5058594,244.5 57.265625,244.5 Z M375,109.125 C383.629449,109.125 390.625,116.120551 390.625,124.75 C390.625,133.379449 383.629449,140.375 375,140.375 C366.370551,140.375 359.375,133.379449 359.375,124.75 C359.375,116.120551 366.370551,109.125 375,109.125 Z M250,77.875 C258.629449,77.875 265.625,84.8705508 265.625,93.5 C265.625,102.129449 258.629449,109.125 250,109.125 C241.370551,109.125 234.375,102.129449 234.375,93.5 C234.375,84.8705508 241.370551,77.875 250,77.875 Z M125,109.125 C133.629449,109.125 140.625,116.120551 140.625,124.75 C140.625,133.379449 133.629449,140.375 125,140.375 C116.370551,140.375 109.375,133.379449 109.375,124.75 C109.375,116.120551 116.370551,109.125 125,109.125 Z M468.75,374.75 L31.25,374.75 C22.6205508,374.75 15.625,381.745551 15.625,390.375 L15.625,406 C15.625,440.517797 43.6072031,468.5 78.125,468.5 L421.875,468.5 C456.392797,468.5 484.375,440.517797 484.375,406 L484.375,390.375 C484.375,381.745551 477.379449,374.75 468.75,374.75 Z" id="Shape" fill="#D9AC6C" fill-rule="nonzero"></path>
    </g>
</svg>