<?xml version="1.0" encoding="UTF-8"?>
<svg width="500px" height="500px" viewBox="0 0 500 500" version="1.1" xmlns="http://www.w3.org/2000/svg" xmlns:xlink="http://www.w3.org/1999/xlink">
    <title>hammer</title>
    <g id="hammer" stroke="none" stroke-width="1" fill="none" fill-rule="evenodd">
        <g id="hammer-duotone" transform="translate(0.000000, 28.000000)" fill-rule="nonzero">
            <path d="M17.8546713,351.211073 L238.529412,145.181661 C241.087755,148.863968 243.937132,152.335291 247.050173,155.562284 L289.558824,198.070934 C292.645765,201.032011 295.954094,203.753286 299.455017,206.211073 L93.4256055,426.782007 C80.1550564,441.351004 59.9490979,447.44394 40.8367247,442.639741 C21.7243514,437.835541 6.80113739,422.912327 1.99693766,403.799954 C-2.80726208,384.68758 3.28567434,364.481622 17.8546713,351.211073 Z" id="Path" fill="#FF5151"></path>
            <path d="M377.647059,227.344291 L387.430796,217.560554 L362.456747,192.560554 C343.44045,197.707217 323.123026,192.315399 309.1609,178.416955 L266.652249,135.908304 C256.269103,125.527377 250.434744,111.447123 250.432526,96.7647059 L250.432526,80.5449827 L172.145329,41.4013841 C198.102126,15.4432493 233.307901,0.860008568 270.017301,0.860008568 C306.726701,0.860008568 341.932476,15.4432493 367.889273,41.4013841 L407.032872,80.5449827 C420.931316,94.5071088 426.323134,114.824533 421.176471,133.84083 L446.176471,158.84083 L455.960208,149.057093 C458.555958,146.460751 462.076906,145.002091 465.74827,145.002091 C469.419634,145.002091 472.940582,146.460751 475.536332,149.057093 L495.112457,168.633218 C500.513361,174.037664 500.513361,182.796246 495.112457,188.200692 L416.816609,266.49654 C414.220859,269.092883 410.699911,270.551543 407.028547,270.551543 C403.357183,270.551543 399.836234,269.092883 397.240484,266.49654 L377.66436,246.920415 C375.065722,244.326961 373.603949,240.807301 373.600704,237.135937 C373.59746,233.464572 375.053009,229.942335 377.647059,227.344291 L377.647059,227.344291 Z" id="Path" fill="#999999"></path>
        </g>
    </g>
</svg>