<?xml version="1.0" encoding="UTF-8"?>
<svg width="500px" height="500px" viewBox="0 0 500 500" version="1.1" xmlns="http://www.w3.org/2000/svg" xmlns:xlink="http://www.w3.org/1999/xlink">
    <title>helicopter</title>
    <g id="helicopter" stroke="none" stroke-width="1" fill="none" fill-rule="evenodd">
        <g id="helicopter-duotone" transform="translate(0.000000, 50.000000)" fill-rule="nonzero">
            <path d="M496.382813,358.445312 L479.078125,341.101562 C474.172601,336.268882 466.296149,336.268882 461.390625,341.101563 C455.851563,346.390625 450.578125,349.890625 442.140625,349.890625 L187.5,349.890625 C180.596441,349.890625 175,355.487066 175,362.390625 L175,387.5 C175,394.403559 180.596441,400 187.5,400 L442.140625,400 C453.765625,400 469.71875,399.632812 495.617188,376.9375 C498.263156,374.641886 499.845183,371.356606 499.990092,367.856607 C500.135001,364.356607 498.829962,360.951795 496.382813,358.445312 L496.382813,358.445312 Z M250,100 L300,100 L300,50 L437.5,50 C444.403559,50 450,44.4035594 450,37.5 L450,12.5 C450,5.59644063 444.403559,0 437.5,0 L112.5,0 C105.596441,0 100,5.59644063 100,12.5 L100,37.5 C100,44.4035594 105.596441,50 112.5,50 L250,50 L250,100 Z" id="Shape" fill="#AB0F0F" opacity="0.55936139"></path>
            <path d="M300,100 L87.5,100 L53.75,55 C51.3893202,51.852427 47.6844663,50 43.75,50 L12.5,50 C8.65259334,50.0029869 5.02091052,51.7775657 2.65429086,54.8109892 C0.287671192,57.8444127 -0.550185056,61.7986822 0.3828125,65.53125 L25,150 L150,200 L217.5,290 C222.22136,296.295146 229.631067,300 237.5,300 L450,300 C463.807119,300 475,288.807119 475,275 C475,178.351563 396.648438,100 300,100 Z M325,250 L325,152.742188 C373.867188,162.734375 412.5,201.125 422.492188,250 L325,250 Z" id="Shape" fill="#37B954"></path>
        </g>
    </g>
</svg>