<?xml version="1.0" encoding="UTF-8"?>
<svg width="500px" height="500px" viewBox="0 0 500 500" version="1.1" xmlns="http://www.w3.org/2000/svg" xmlns:xlink="http://www.w3.org/1999/xlink">
    <title>jet</title>
    <g id="jet" stroke="none" stroke-width="1" fill="none" fill-rule="evenodd">
        <g id="fighter-jet-duotone" transform="translate(0.000000, 75.000000)" fill="#031E5C" fill-rule="nonzero">
            <path d="M131.25,125 L268.75,125 L177.46875,9.375 L208.335938,9.375 C217.445313,9.375 225,7.328125 225,4.6875 C225,2.046875 217.445312,0 208.335938,0 L118.75,0 L118.75,9.375 L131.25,9.375 L131.25,125 Z M131.25,225 L131.25,340.625 L118.75,340.625 L118.75,350 L208.335938,350 C217.445313,350 225,347.953125 225,345.3125 C225,342.671875 217.445312,340.625 208.335938,340.625 L177.46875,340.625 L268.75,225 L131.25,225 Z" id="Shape"></path>
            <path d="M500,175 C500,179.234375 500,183.335938 425,200 L325,212.5 L287.5,225 L83.3359375,225 L41.6640625,275 L14.5859375,275 L6.25,266.664062 L6.25,212.5 L12.5,212.5 L12.5,200 L50,200 L50,197.914062 L0,191.664062 L0,158.335938 L50,152.085938 L50,150 L12.5,150 L12.5,137.5 L6.25,137.5 L6.25,83.3359375 L14.5859375,75 L41.6640625,75 L83.3359375,125 L287.5,125 L325,137.5 L425,150 C500,166.664062 500,170.765625 500,175 Z" id="Path"></path>
        </g>
    </g>
</svg>