<?xml version="1.0" encoding="UTF-8"?>
<svg width="500px" height="500px" viewBox="0 0 500 500" version="1.1" xmlns="http://www.w3.org/2000/svg" xmlns:xlink="http://www.w3.org/1999/xlink">
    <title>lemon</title>
    <g id="lemon" stroke="none" stroke-width="1" fill="none" fill-rule="evenodd">
        <g id="lemon-duotone" fill-rule="nonzero">
            <path d="M477.539063,22.4609375 C455.019531,-0.126953125 424.462891,-5.79101563 404.296875,5.98632812 C346.679688,39.4921875 227.246094,-45.8496094 90.6933594,90.703125 C-45.859375,227.255859 39.4921875,346.679688 5.98632812,404.238281 C-5.79101563,424.462891 -0.126953125,455.019531 22.4609375,477.539062 C45.0488281,500.058594 75.5761719,505.751953 95.8007812,493.974609 C153.320313,460.507812 272.753906,545.898438 409.277344,409.306641 C545.800781,272.714844 460.507813,153.320312 494.013672,95.7617187 C505.791016,75.5371094 500.126953,44.9804687 477.539063,22.4609375 Z M238.164063,93.28125 C181.337891,107.490234 107.490234,181.328125 93.28125,238.164062 C90.8450114,246.111982 82.6121975,250.760853 74.5480905,248.742225 C66.4839834,246.723597 61.4122836,238.744306 63.0078125,230.585938 C79.9804687,162.529297 162.421875,80.0097656 230.585937,62.96875 C238.744306,61.3732211 246.723597,66.4449209 248.742225,74.509028 C250.760853,82.573135 246.111982,90.8059489 238.164062,93.2421875 L238.164063,93.28125 Z" id="Shape" fill="#F7E740" opacity="0.702228555"></path>
            <path d="M238.164062,93.2421875 C181.337891,107.451172 107.490234,181.289062 93.28125,238.125 C90.8450114,246.072919 82.6121975,250.72179 74.5480905,248.703162 C66.4839834,246.684534 61.4122836,238.705243 63.0078125,230.546875 C79.9804687,162.529297 162.421875,80.0097656 230.585937,62.96875 C238.744306,61.3732211 246.723597,66.4449209 248.742225,74.509028 C250.760853,82.573135 246.111982,90.8059489 238.164062,93.2421875 L238.164062,93.2421875 Z" id="Path" fill="#EFD902"></path>
        </g>
    </g>
</svg>