<?xml version="1.0" encoding="UTF-8"?>
<svg width="500px" height="500px" viewBox="0 0 500 500" version="1.1" xmlns="http://www.w3.org/2000/svg" xmlns:xlink="http://www.w3.org/1999/xlink">
    <title>monster_truck</title>
    <g id="monster_truck" stroke="none" stroke-width="1" fill="none" fill-rule="evenodd">
        <g id="truck-monster-duotone" transform="translate(0.000000, 50.000000)" fill="#000000" fill-rule="nonzero">
            <path d="M462.5,275 L458.4375,275 C456.750463,269.342568 454.485941,263.873681 451.679688,258.679688 L454.546875,255.8125 C456.891697,253.468213 458.209049,250.288357 458.209049,246.972656 C458.209049,243.656956 456.891697,240.477099 454.546875,238.132812 L436.867188,220.453125 C434.522901,218.108303 431.343044,216.790951 428.027344,216.790951 C424.711643,216.790951 421.531787,218.108303 419.1875,220.453125 L416.320313,223.320313 C411.125702,220.515355 405.656952,218.250889 400,216.5625 L400,212.5 C400,205.596441 394.403559,200 387.5,200 L362.5,200 C355.596441,200 350,205.596441 350,212.5 L350,216.5625 C344.342568,218.249537 338.873681,220.514059 333.679688,223.320312 L330.8125,220.453125 C328.468213,218.108303 325.288357,216.790951 321.972656,216.790951 C318.656956,216.790951 315.477099,218.108303 313.132813,220.453125 L295.453125,238.132812 C293.108303,240.477099 291.790951,243.656956 291.790951,246.972656 C291.790951,250.288357 293.108303,253.468213 295.453125,255.8125 L298.320313,258.679687 C295.515355,263.874298 293.250889,269.343048 291.5625,275 L287.5,275 C280.596441,275 275,280.596441 275,287.5 L275,312.5 C275,319.403559 280.596441,325 287.5,325 L291.5625,325 C293.249537,330.657432 295.514059,336.126319 298.320312,341.320312 L295.453125,344.1875 C293.108303,346.531787 291.790951,349.711643 291.790951,353.027344 C291.790951,356.343044 293.108303,359.522901 295.453125,361.867188 L313.132812,379.546875 C315.477099,381.891697 318.656956,383.209049 321.972656,383.209049 C325.288357,383.209049 328.468213,381.891697 330.8125,379.546875 L333.679687,376.679688 C338.875451,379.482218 344.343948,381.746579 350,383.4375 L350,387.5 C350,394.403559 355.596441,400 362.5,400 L387.5,400 C394.403559,400 400,394.403559 400,387.5 L400,383.4375 C405.659429,381.749041 411.130764,379.484589 416.328125,376.679688 L419.195312,379.546875 C421.539599,381.891697 424.719456,383.209049 428.035156,383.209049 C431.350857,383.209049 434.530713,381.891697 436.875,379.546875 L454.554687,361.867188 C456.89951,359.522901 458.216862,356.343044 458.216862,353.027344 C458.216862,349.711643 456.89951,346.531787 454.554687,344.1875 L451.6875,341.320312 C454.495147,336.126014 456.762235,330.657253 458.453125,325 L462.5,325 C469.403559,325 475,319.403559 475,312.5 L475,287.5 C475,280.596441 469.403559,275 462.5,275 L462.5,275 Z M375,337.5 C354.289322,337.5 337.5,320.710678 337.5,300 C337.5,279.289322 354.289322,262.5 375,262.5 C395.710678,262.5 412.5,279.289322 412.5,300 C412.5,320.710678 395.710678,337.5 375,337.5 Z M212.5,275 L208.4375,275 C206.750463,269.342568 204.485941,263.873681 201.679688,258.679688 L204.546875,255.8125 C206.891697,253.468213 208.209049,250.288357 208.209049,246.972656 C208.209049,243.656956 206.891697,240.477099 204.546875,238.132812 L186.867188,220.453125 C184.522901,218.108303 181.343044,216.790951 178.027344,216.790951 C174.711643,216.790951 171.531787,218.108303 169.1875,220.453125 L166.320313,223.320313 C161.125702,220.515355 155.656952,218.250889 150,216.5625 L150,212.5 C150,205.596441 144.403559,200 137.5,200 L112.5,200 C105.596441,200 100,205.596441 100,212.5 L100,216.5625 C94.3425681,218.249537 88.8736813,220.514059 83.6796875,223.320312 L80.8125,220.453125 C78.4682133,218.108303 75.2883569,216.790951 71.9726562,216.790951 C68.6569556,216.790951 65.4770992,218.108303 63.1328125,220.453125 L45.453125,238.125 C43.108303,240.469287 41.7909507,243.649143 41.7909507,246.964844 C41.7909507,250.280544 43.108303,253.460401 45.453125,255.804688 L48.3203125,258.671875 C45.5148635,263.868976 43.2503878,269.340368 41.5625,275 L37.5,275 C30.5964406,275 25,280.596441 25,287.5 L25,312.5 C25,319.403559 30.5964406,325 37.5,325 L41.5625,325 C43.2495369,330.657432 45.5140593,336.126319 48.3203125,341.320312 L45.453125,344.1875 C43.108303,346.531787 41.7909507,349.711643 41.7909507,353.027344 C41.7909507,356.343044 43.108303,359.522901 45.453125,361.867188 L63.1328125,379.546875 C65.4770992,381.891697 68.6569556,383.209049 71.9726562,383.209049 C75.2883569,383.209049 78.4682133,381.891697 80.8125,379.546875 L83.6796875,376.679688 C88.8779421,379.482708 94.3490802,381.747079 100.007812,383.4375 L100.007812,387.5 C100.007812,394.403559 105.604253,400 112.507812,400 L137.507812,400 C144.411372,400 150.007812,394.403559 150.007812,387.5 L150.007812,383.4375 C155.667242,381.749041 161.138577,379.484589 166.335938,376.679688 L169.203125,379.546875 C171.547412,381.891697 174.727268,383.209049 178.042969,383.209049 C181.358669,383.209049 184.538526,381.891697 186.882812,379.546875 L204.5625,361.867188 C206.907322,359.522901 208.224674,356.343044 208.224674,353.027344 C208.224674,349.711643 206.907322,346.531787 204.5625,344.1875 L201.695312,341.320313 C204.50027,336.125702 206.764736,330.656952 208.453125,325 L212.5,325 C219.403559,325 225,319.403559 225,312.5 L225,287.5 C225,280.596441 219.403559,275 212.5,275 L212.5,275 Z M125,337.5 C104.289322,337.5 87.5,320.710678 87.5,300 C87.5,279.289322 104.289322,262.5 125,262.5 C145.710678,262.5 162.5,279.289322 162.5,300 C162.5,320.710678 145.710678,337.5 125,337.5 Z" id="Shape" opacity="0.681048654"></path>
            <path d="M487.5,174.99999 L475,174.99999 L475,124.99999 C475,111.192881 463.807119,99.9999902 450,99.9999902 L392.5,99.9999902 L327.515625,18.75 C318.019814,6.88973019 303.646424,-0.00949723844 288.453125,-9.79233168e-06 L200,-9.79233168e-06 C186.192881,-9.79233168e-06 175,11.1928813 175,24.9999902 L175,99.9999902 L37.5,99.9999902 C30.5964406,99.9999902 25,105.596441 25,112.49999 L25,174.99999 L12.5,174.99999 C5.59644063,174.99999 0,180.596441 0,187.49999 L0,212.49999 C0,219.403559 5.59644063,224.99999 12.5,224.99999 L25.5625,224.99999 C48.3828125,194.804687 84.234375,174.99999 125,174.99999 C165.765625,174.99999 201.617188,194.804687 224.4375,224.99999 L275.570312,224.99999 C298.390625,194.804687 334.242187,174.99999 375.007812,174.99999 C415.773438,174.99999 451.625,194.804687 474.445312,224.99999 L487.5,224.99999 C494.403559,224.99999 500,219.403559 500,212.49999 L500,187.49999 C500,180.596441 494.403559,174.99999 487.5,174.99999 Z M225,100 L225,50 L288.46875,50 L328.46875,100 L225,100 Z" id="Shape"></path>
        </g>
    </g>
</svg>