<?xml version="1.0" encoding="UTF-8"?>
<svg width="500px" height="500px" viewBox="0 0 500 500" version="1.1" xmlns="http://www.w3.org/2000/svg" xmlns:xlink="http://www.w3.org/1999/xlink">
    <title>motorcycle</title>
    <g id="motorcycle" stroke="none" stroke-width="1" fill="none" fill-rule="evenodd">
        <g id="motorcycle-solid" transform="translate(0.000000, 100.000000)" fill-rule="nonzero">
            <path d="M400.233645,99.6884735 C388.629283,99.6105919 377.570093,101.479751 367.211838,105.062305 L341.588785,62.305296 L405.76324,62.305296 C416.121495,62.305296 424.454829,53.9719626 424.454829,43.6137072 L424.454829,18.6915888 C424.454829,8.33333333 416.121495,-4.54747351e-13 405.76324,-4.54747351e-13 L370.482866,-4.54747351e-13 C365.186916,-4.54747351e-13 360.124611,2.25856698 356.619938,6.15264798 L327.41433,38.6292835 L309.657321,9.03426791 C306.23053,3.42679128 300.155763,-4.54747351e-13 293.613707,-4.54747351e-13 L231.308411,-4.54747351e-13 C224.454829,-4.54747351e-13 218.847352,5.60747664 218.847352,12.4610592 L218.847352,24.9221184 C218.847352,31.7757009 224.454829,37.3831776 231.308411,37.3831776 L283.021807,37.3831776 L297.975078,62.305296 L178.271028,62.305296 C164.485981,44.3146417 143.302181,31.152648 100.46729,31.152648 L57.2429907,31.152648 C46.728972,31.152648 37.9283489,39.7196262 38.1619938,50.2336449 C38.317757,60.3582555 46.6510903,68.5358255 56.8535826,68.5358255 L100.46729,68.5358255 C119.548287,68.5358255 130.607477,77.0249221 137.694704,87.8504673 L128.894081,103.816199 C118.76947,100.778816 107.943925,99.376947 96.728972,99.7663551 C44.3146417,101.635514 2.02492212,144.548287 0.778816199,197.040498 C-0.46728972,253.193146 44.6261682,299.065421 100.46729,299.065421 C146.884735,299.065421 185.903427,267.28972 197.040498,224.299065 L262.616822,224.299065 C273.286604,224.299065 281.775701,215.420561 281.308411,204.750779 C279.672897,168.068536 294.937695,131.775701 325.077882,107.398754 L334.813084,123.598131 C313.317757,142.056075 299.688474,169.470405 299.922118,200.077882 C300.311526,254.283489 344.470405,298.598131 398.676012,299.065421 C454.439252,299.610592 499.766355,254.283489 499.302646,198.520249 C498.753894,144.314642 454.439252,100.077882 400.233645,99.6884735 L400.233645,99.6884735 Z" id="Path-2" fill="#000000"></path>
            <path d="M100.46729,261.682243 C66.1214953,261.682243 38.1619938,233.722741 38.1619938,199.376947 C38.1619938,165.031153 66.1214953,137.071651 100.46729,137.071651 C103.738318,137.071651 107.009346,137.305296 110.202492,137.850467 L77.8816199,196.573209 C71.0280374,209.034268 80.0623053,224.299065 94.2367601,224.299065 L157.554517,224.299065 C147.897196,246.261682 125.934579,261.682243 100.46729,261.682243 Z M461.760125,202.803738 C460.046729,234.423676 434.501558,259.968847 402.959502,261.604361 C367.056075,263.551402 337.227414,234.890966 337.227414,199.376947 C337.227414,182.71028 343.76947,167.601246 354.439252,156.464174 L392.912773,220.638629 C396.417445,226.557632 404.127726,228.426791 410.046729,224.922118 L420.716511,218.535826 C426.635514,215.031153 428.504673,207.320872 425,201.401869 L387.149533,138.395639 C391.199377,137.538941 395.327103,137.149381 399.53271,137.149381 C435.046729,137.071651 463.629283,166.900312 461.760125,202.803738 Z" id="Shape" fill="#FFFFFF"></path>
        </g>
    </g>
</svg>