<?xml version="1.0" encoding="UTF-8"?>
<svg width="500px" height="500px" viewBox="0 0 500 500" version="1.1" xmlns="http://www.w3.org/2000/svg" xmlns:xlink="http://www.w3.org/1999/xlink">
    <title>phone</title>
    <g id="phone" stroke="none" stroke-width="1" fill="none" fill-rule="evenodd">
        <g id="mobile-alt-duotone" transform="translate(94.000000, 0.000000)" fill="#000000" fill-rule="nonzero">
            <path d="M265.625,0 L46.875,0 C20.9866524,0 0,20.9866524 0,46.875 L0,453.125 C0,479.013348 20.9866524,500 46.875,500 L265.625,500 C291.513348,500 312.5,479.013348 312.5,453.125 L312.5,46.875 C312.5,20.9866524 291.513348,0 265.625,0 Z M156.25,468.75 C138.991102,468.75 125,454.758898 125,437.5 C125,420.241102 138.991102,406.25 156.25,406.25 C173.508898,406.25 187.5,420.241102 187.5,437.5 C187.5,454.758898 173.508898,468.75 156.25,468.75 Z M265.625,363.28125 C265.625,369.753337 260.378337,375 253.90625,375 L58.59375,375 C52.1216631,375 46.875,369.753337 46.875,363.28125 L46.875,58.59375 C46.875,52.1216631 52.1216631,46.875 58.59375,46.875 L253.90625,46.875 C260.378337,46.875 265.625,52.1216631 265.625,58.59375 L265.625,363.28125 Z" id="Shape" opacity="0.526838772"></path>
            <path d="M265.625,363.28125 C265.625,369.753337 260.378337,375 253.90625,375 L58.59375,375 C52.1216631,375 46.875,369.753337 46.875,363.28125 L46.875,58.59375 C46.875,52.1216631 52.1216631,46.875 58.59375,46.875 L253.90625,46.875 C260.378337,46.875 265.625,52.1216631 265.625,58.59375 L265.625,363.28125 Z" id="Path"></path>
        </g>
    </g>
</svg>