<?xml version="1.0" encoding="UTF-8"?>
<svg width="500px" height="500px" viewBox="0 0 500 500" version="1.1" xmlns="http://www.w3.org/2000/svg" xmlns:xlink="http://www.w3.org/1999/xlink">
    <title>pizza</title>
    <g id="pizza" stroke="none" stroke-width="1" fill="none" fill-rule="evenodd">
        <g id="pizza-slice-duotone" fill-rule="nonzero">
            <path d="M98.0371094,109.560547 L0.52734375,480.117187 C-0.922037565,485.597918 0.671997402,491.435225 4.70581466,495.41862 C8.73963192,499.402014 14.5965272,500.922501 20.0585937,499.404297 L390.175781,396.767578 C386.005859,225.976563 269.980469,111.474609 98.0371094,109.560547 Z M125,406.25 C107.741102,406.25 93.75,392.258898 93.75,375 C93.75,357.741102 107.741102,343.75 125,343.75 C142.258898,343.75 156.25,357.741102 156.25,375 C156.25,392.258898 142.258898,406.25 125,406.25 Z M171.875,257.8125 C154.616102,257.8125 140.625,243.821398 140.625,226.5625 C140.625,209.303602 154.616102,195.3125 171.875,195.3125 C189.133898,195.3125 203.125,209.303602 203.125,226.5625 C203.125,243.821398 189.133898,257.8125 171.875,257.8125 Z M273.4375,359.375 C256.178602,359.375 242.1875,345.383898 242.1875,328.125 C242.1875,310.866102 256.178602,296.875 273.4375,296.875 C290.696398,296.875 304.6875,310.866102 304.6875,328.125 C304.6875,345.383898 290.696398,359.375 273.4375,359.375 Z" id="Shape" fill="#F0BF64"></path>
            <path d="M499.765625,337.753906 C479.375,161.210937 332.783203,16.9140625 155.136719,0.146484375 C139.355469,-1.33789063 124.667969,8.36914062 120.634766,23.7011719 L106.171875,78.6523437 C289.394531,83.984375 413.339844,206.201172 421.09375,388.222656 L476.699219,372.8125 C492.050781,368.554688 501.591797,353.59375 499.765625,337.753906 Z" id="Shape" fill="#CA7C49"></path>
            <path d="M125,343.75 C107.741102,343.75 93.75,357.741102 93.75,375 C93.75,392.258898 107.741102,406.25 125,406.25 C142.258898,406.25 156.25,392.258898 156.25,375 C156.25,357.741102 142.258898,343.75 125,343.75 Z" id="Path" fill="#9D2E2E"></path>
            <path d="M171.875,195.3125 C154.616102,195.3125 140.625,209.303602 140.625,226.5625 C140.625,243.821398 154.616102,257.8125 171.875,257.8125 C189.133898,257.8125 203.125,243.821398 203.125,226.5625 C203.125,209.303602 189.133898,195.3125 171.875,195.3125 Z" id="Path" fill="#9D2E2E"></path>
            <path d="M273.4375,296.875 C256.178602,296.875 242.1875,310.866102 242.1875,328.125 C242.1875,345.383898 256.178602,359.375 273.4375,359.375 C290.696398,359.375 304.6875,345.383898 304.6875,328.125 C304.6875,310.866102 290.696398,296.875 273.4375,296.875 Z" id="Path" fill="#9D2E2E"></path>
        </g>
    </g>
</svg>