<?xml version="1.0" encoding="UTF-8"?>
<svg width="500px" height="500px" viewBox="0 0 500 500" version="1.1" xmlns="http://www.w3.org/2000/svg" xmlns:xlink="http://www.w3.org/1999/xlink">
    <title>popcorn</title>
    <g id="popcorn" stroke="none" stroke-width="1" fill="none" fill-rule="evenodd">
        <g id="popcorn-duotone" transform="translate(63.000000, 0.000000)" fill-rule="nonzero">
            <path d="M36.5820312,115.234375 C30.098972,103.881177 30.222071,89.9187676 36.9042969,78.6816406 C45.8007812,63.0566406 64.2480469,55.5761719 81.40625,59.0332031 C81.7382812,42.7832031 92.5976562,27.7832031 109.726562,22.4804688 C122.586345,18.2917257 136.673399,20.4980443 147.636719,28.4179688 C151.67451,15.7687827 161.634988,5.88851434 174.316406,1.953125 C196.064453,-4.66796875 219.462891,6.26953125 226.396484,26.8945313 C226.767615,27.4559342 226.99561,28.099685 227.060547,28.7695313 C238.031554,20.6092441 252.271814,18.25891 265.283203,22.4609375 C282.402344,27.7636719 293.28125,42.7636719 293.603516,59.0136719 C310.742187,55.6640625 329.189453,63.0859375 338.085937,78.7109375 C344.62635,89.9873015 344.748779,103.873743 338.408203,115.263672 C351.826241,116.415946 363.861708,123.977668 370.722656,135.566406 C374.541016,142.158203 375.371094,149.238281 374.863281,156.191406 L0.126953125,156.191406 C-0.361328125,149.238281 0.46875,142.148438 4.296875,135.566406 C10.8789062,123.701172 23.4375,116.513672 36.5820312,115.234375 Z" id="Path" fill="#FFD44A" opacity="0.903196839"></path>
            <path d="M0,187.5 L79.6484375,187.5 L106.992188,437.5 L150.986328,437.5 L129.931641,187.5 L245.117188,187.5 L224.013672,437.5 L267.958984,437.5 L295.302734,187.5 L375,187.5 L332.119141,473.369141 C329.831665,488.674672 316.686462,500 301.210938,500 L73.7890625,500 C58.3199197,500 45.1770601,488.686444 42.8808594,473.388672 L0,187.5 Z" id="Path" fill="#E14C4C"></path>
        </g>
    </g>
</svg>