<?xml version="1.0" encoding="UTF-8"?>
<svg width="500px" height="500px" viewBox="0 0 500 500" version="1.1" xmlns="http://www.w3.org/2000/svg" xmlns:xlink="http://www.w3.org/1999/xlink">
    <title>puzzle</title>
    <g id="puzzle" stroke="none" stroke-width="1" fill="none" fill-rule="evenodd">
        <g id="Group" transform="translate(250.500000, 250.500000) rotate(-360.000000) translate(-250.500000, -250.500000) translate(1.000000, 24.000000)" fill-rule="nonzero">
            <g id="puzzle-piece-solid-copy" transform="translate(7.000000, 16.000000)" fill="#D6AF87" fill-opacity="0.481954081">
                <path d="M443.690042,246.368139 C408.225896,246.368139 392.867125,273.333258 373.598833,273.333258 C322.370187,273.333258 369,122.90625 369,122.90625 C369,122.90625 201.337333,191.1875 201.337333,120.092209 C201.337333,89.5133047 232.333333,80.6171113 232.333333,46.702668 C232.333333,16.4011562 208.318437,0 179.835396,0 C150.235104,0 123.147771,16.1237637 123.147771,48.0921914 C123.147771,83.3970117 150.23425,98.6860371 150.23425,117.867094 C150.235104,177.291412 0,142.330559 0,142.330559 L0,426.753545 C0,426.753545 152.584062,461.787801 152.584062,402.29008 C152.584062,383.109023 118.417396,368.058129 118.417396,332.753309 C118.417396,300.784027 143.401771,284.661117 172.72275,284.661117 C201.485104,284.661117 225.5,301.062273 225.5,331.362932 C225.5,365.277375 194.504,374.173568 194.504,404.752473 C194.504,456.648783 305.268062,426.71343 349.304625,426.71343 C349.304625,426.71343 319.643687,324.20535 371.365188,324.20535 C402.082729,324.20535 411.018167,355.061646 445.086604,355.061646 C475.524833,355.0625 492,331.155527 492,302.522639 C492,273.333258 475.803292,246.368139 443.690042,246.368139 Z" id="Path"></path>
            </g>
            <g id="puzzle-piece-solid" fill="#1886FB">
                <path d="M443.690042,246.368139 C408.225896,246.368139 392.867125,273.333258 373.598833,273.333258 C322.370187,273.333258 369,122.90625 369,122.90625 C369,122.90625 201.337333,191.1875 201.337333,120.092209 C201.337333,89.5133047 232.333333,80.6171113 232.333333,46.702668 C232.333333,16.4011562 208.318437,0 179.835396,0 C150.235104,0 123.147771,16.1237637 123.147771,48.0921914 C123.147771,83.3970117 150.23425,98.6860371 150.23425,117.867094 C150.235104,177.291412 0,142.330559 0,142.330559 L0,426.753545 C0,426.753545 152.584062,461.787801 152.584062,402.29008 C152.584062,383.109023 118.417396,368.058129 118.417396,332.753309 C118.417396,300.784027 143.401771,284.661117 172.72275,284.661117 C201.485104,284.661117 225.5,301.062273 225.5,331.362932 C225.5,365.277375 194.504,374.173568 194.504,404.752473 C194.504,456.648783 305.268062,426.71343 349.304625,426.71343 C349.304625,426.71343 319.643687,324.20535 371.365188,324.20535 C402.082729,324.20535 411.018167,355.061646 445.086604,355.061646 C475.524833,355.0625 492,331.155527 492,302.522639 C492,273.333258 475.803292,246.368139 443.690042,246.368139 Z" id="Path"></path>
            </g>
        </g>
    </g>
</svg>