<?xml version="1.0" encoding="UTF-8"?>
<svg width="500px" height="500px" viewBox="0 0 500 500" version="1.1" xmlns="http://www.w3.org/2000/svg" xmlns:xlink="http://www.w3.org/1999/xlink">
    <title>rabbit</title>
    <g id="rabbit" stroke="none" stroke-width="1" fill="none" fill-rule="evenodd">
        <g id="rabbit-duotone" transform="translate(9.000000, 0.000000)" fill-rule="nonzero">
            <path d="M436.09375,476.09375 L344.726563,329.931641 L344.726563,265.625 L351.904297,265.625 C375.958876,265.635897 397.263786,250.101806 404.609192,227.196176 C411.954599,204.290546 403.656901,179.263453 384.082031,165.283203 L336.572266,131.347656 C335.498047,130.820313 334.355469,130.625 333.271484,130.166016 C340.888672,117.96875 348.125,101.103516 353.330078,81.6699219 C364.384766,40.4199219 362.197266,3.984375 348.447266,0.302734375 C334.697266,-3.37890625 314.589844,27.0703125 303.525391,68.359375 C301.001317,77.7012314 299.105799,87.2016616 297.851563,96.796875 C296.60879,87.2035349 294.729647,77.7034225 292.226563,68.359375 C281.162109,27.0703125 261.054688,-3.37890625 247.304688,0.302734375 C233.554688,3.984375 231.367188,40.4199219 242.421875,81.6699219 C249.199219,106.962891 259.384766,128.095703 269.414063,139.892578 C260.517578,147.636719 253.886719,157.958984 251.835938,170.703125 C251.281214,173.994815 250.993817,177.326003 250.976562,180.664063 L250.976562,250 L237.304688,250 C141.302065,250 63.4765625,327.825502 63.4765625,423.828125 L63.4765625,435.546875 C63.4765625,471.143353 92.3332095,500 127.929688,500 L266.601563,500 C275.231012,500 282.226563,493.004449 282.226563,484.375 L282.226563,468.75 C282.226563,451.491102 268.235461,437.5 250.976562,437.5 L228.935547,437.5 L301.542969,378.730469 L372.744141,492.65625 C375.599804,497.2253 380.608049,500 385.996094,500 L422.851563,500 C428.526757,499.990087 433.750364,496.903752 436.497181,491.937573 C439.243997,486.971394 439.082085,480.906304 436.074219,476.09375 L436.09375,476.09375 Z M329.101563,203.125 C320.472113,203.125 313.476563,196.129449 313.476563,187.5 C313.476563,178.870551 320.472113,171.875 329.101563,171.875 C337.731012,171.875 344.726563,178.870551 344.726563,187.5 C344.726563,196.129449 337.731012,203.125 329.101563,203.125 Z" id="Shape" fill="#C46600" opacity="0.4"></path>
            <path d="M63.4765625,423.828125 C63.4653143,409.064902 65.332521,394.360239 69.0332031,380.068359 C49.2232429,370.029969 25.0877751,375.270517 11.2246387,392.620365 C-2.63849781,409.970214 -2.42411979,434.667141 11.7381106,451.77372 C25.900341,468.880298 50.1231446,473.701079 69.7558594,463.320313 C65.6048075,454.651115 63.458652,445.158633 63.4765625,435.546875 L63.4765625,423.828125 Z" id="Path" fill="#9C7E5C"></path>
            <path d="M329.101562,171.875 C320.472113,171.875 313.476562,178.870551 313.476562,187.5 C313.476562,196.129449 320.472113,203.125 329.101562,203.125 C337.731012,203.125 344.726562,196.129449 344.726562,187.5 C344.726562,178.870551 337.731012,171.875 329.101562,171.875 Z" id="Path" fill="#636363"></path>
        </g>
    </g>
</svg>