<?xml version="1.0" encoding="UTF-8"?>
<svg width="500px" height="500px" viewBox="0 0 500 500" version="1.1" xmlns="http://www.w3.org/2000/svg" xmlns:xlink="http://www.w3.org/1999/xlink">
    <title>school_bus</title>
    <g id="school_bus" stroke="none" stroke-width="1" fill="none" fill-rule="evenodd">
        <g id="bus-school-duotone" fill-rule="nonzero">
            <path d="M62.5,468.75 C62.5,486.008898 76.4911016,500 93.75,500 L125,500 C142.258898,500 156.25,486.008898 156.25,468.75 L156.25,437.5 L62.5,437.5 L62.5,468.75 Z M343.75,437.5 L343.75,468.75 C343.75,486.008898 357.741102,500 375,500 L406.25,500 C423.508898,500 437.5,486.008898 437.5,468.75 L437.5,437.5 L343.75,437.5 Z M109.375,156.25 L109.375,218.75 C109.375,236.008898 123.366102,250 140.625,250 L234.375,250 L234.375,125 L140.625,125 C123.366102,125 109.375,138.991102 109.375,156.25 Z M390.625,218.75 L390.625,156.25 C390.625,138.991102 376.633898,125 359.375,125 L265.625,125 L265.625,250 L359.375,250 C376.633898,250 390.625,236.008898 390.625,218.75 Z" id="Shape" fill="#000000" opacity="0.838630203"></path>
            <path d="M476.5625,109.375 L453.125,109.375 L453.125,78.125 C453.125,34.375 363.173828,0 250,0 C136.826172,0 46.875,34.375 46.875,78.125 L46.875,109.375 L23.4375,109.375 C10.4933262,109.375 0,119.868326 0,132.8125 L0,210.9375 C0,223.881674 10.4933262,234.375 23.4375,234.375 L46.875,234.375 L46.875,254.785156 C37.7050781,260.224609 31.25,269.804687 31.25,281.25 L31.25,406.25 C31.25,423.508898 45.2411016,437.5 62.5,437.5 L437.5,437.5 C454.758898,437.5 468.75,423.508898 468.75,406.25 L468.75,281.25 C468.75,269.804687 462.294922,260.234375 453.125,254.785156 L453.125,234.375 L476.5625,234.375 C489.506674,234.375 500,223.881674 500,210.9375 L500,132.8125 C500,119.868326 489.506674,109.375 476.5625,109.375 Z" id="Shape" fill="#F8C379"></path>
            <path d="M109.375,375 C92.1161016,375 78.125,361.008898 78.125,343.75 C78.125,326.491102 92.1161016,312.5 109.375,312.5 C126.633898,312.5 140.625,326.491102 140.625,343.75 C140.625,361.008898 126.633898,375 109.375,375 Z" id="Path" fill="#DD7A3E"></path>
            <path d="M390.625,375 C373.366102,375 359.375,361.008898 359.375,343.75 C359.375,326.491102 373.366102,312.5 390.625,312.5 C407.883898,312.5 421.875,326.491102 421.875,343.75 C421.875,361.008898 407.883898,375 390.625,375 Z" id="Path" fill="#DD7A3E"></path>
            <path d="M234.375,250 L140.625,250 C123.366102,250 109.375,236.008898 109.375,218.75 L109.375,156.25 C109.375,138.991102 123.366102,125 140.625,125 L234.375,125 L234.375,250 Z" id="Path" fill="#999999"></path>
            <path d="M265.625,125 L359.375,125 C376.633898,125 390.625,138.991102 390.625,156.25 L390.625,218.75 C390.625,236.008898 376.633898,250 359.375,250 L265.625,250 L265.625,125 Z" id="Path" fill="#999999"></path>
            <path d="M156.25,70.3125 C156.25,65.9977754 159.747775,62.5 164.0625,62.5 L335.9375,62.5 C340.252225,62.5 343.75,65.9977754 343.75,70.3125 L343.75,85.9375 C343.75,90.2522246 340.252225,93.75 335.9375,93.75 L164.0625,93.75 C159.747775,93.75 156.25,90.2522246 156.25,85.9375 L156.25,70.3125 Z" id="Path" fill="#FFFFFF"></path>
        </g>
    </g>
</svg>