<?xml version="1.0" encoding="UTF-8"?>
<svg width="500px" height="500px" viewBox="0 0 500 500" version="1.1" xmlns="http://www.w3.org/2000/svg" xmlns:xlink="http://www.w3.org/1999/xlink">
    <title>screwdriver</title>
    <g id="screwdriver" stroke="none" stroke-width="1" fill="none" fill-rule="evenodd">
        <g id="screwdriver-duotone" fill-rule="nonzero">
            <path d="M437.5,0 L500,62.5 L406.25,187.5 L345.634766,187.5 L264.580078,268.554688 C256.434486,254.95312 245.05168,243.577024 231.445312,235.439453 L312.5,154.384766 L312.5,93.75 L437.5,0 Z" id="Path" fill="#000000" opacity="0.4"></path>
            <path d="M62.1191406,489.335938 L10.6542969,437.871094 C-3.55549444,423.654897 -3.55549444,400.612681 10.6542969,386.396484 L125,272.060547 C153.53975,244.317119 199.07084,244.640281 227.21391,272.786022 C255.35698,300.931762 255.675822,346.462883 227.929688,375 L113.59375,489.335938 C106.769266,496.164672 97.5107287,500.001372 87.8564453,500.001372 C78.2021619,500.001372 68.9436242,496.164672 62.1191406,489.335937 L62.1191406,489.335938 Z" id="Path" fill="#0C5AAD"></path>
        </g>
    </g>
</svg>