<?xml version="1.0" encoding="UTF-8"?>
<svg width="500px" height="500px" viewBox="0 0 500 500" version="1.1" xmlns="http://www.w3.org/2000/svg" xmlns:xlink="http://www.w3.org/1999/xlink">
    <title>space_shuttle</title>
    <g id="space_shuttle" stroke="none" stroke-width="1" fill="none" fill-rule="evenodd">
        <g id="space-shuttle-regular" transform="translate(0.000000, 86.000000)" fill="#000000" fill-rule="nonzero">
            <path d="M356.25,106.25 C193.75,106.25 208.585156,0 75,0 C40.1054688,0 23.125,19.0546875 23.125,50 L23.125,93.75 C7.075,93.75 0,102.00625 0,112.5 L0,150 C0,160.026563 6.571875,168.75 23.125,168.75 L23.125,181.25 C7.075,181.25 0,189.50625 0,200 L0,237.5 C0,247.526563 6.571875,256.25 23.125,256.25 L23.125,300 C23.125,330.939062 40.0992187,350 75,350 C208.616406,350 193.75,243.75 356.25,243.75 C431.25,243.75 500,217.578125 500,175 C500,135.15625 431.25,106.25 356.25,106.25 Z M90.1695313,37.5 C141.622656,37.5 187.5,87.5 225,106.25 L112.5,106.25 C101.563281,98.8257813 88.1601562,93.75 75,93.75 L75,37.5 L90.1695313,37.5 Z M90.1695313,312.5 L75,312.5 L75,256.25 C88.1601562,256.25 101.563281,251.174219 112.5,243.75 L225,243.75 C187.5,262.5 148.838281,312.5 90.1695313,312.5 Z M356.25,212.5 L131.864062,212.5 C139.204688,189.614844 139.553906,161.472656 131.864062,137.5 L356.25,137.5 C387.4125,137.5 416.19375,140.451562 437.292188,150 C437.3625,150.032031 437.3625,199.967969 437.292188,200 C416.19375,209.548437 387.4125,212.5 356.25,212.5 Z M375.189063,203.571094 C371.737283,203.571094 368.939063,200.772873 368.939063,197.321094 L368.939063,152.678125 C368.939063,149.226345 371.737283,146.428125 375.189063,146.428125 C408.301563,146.428906 408.238281,203.571094 375.189063,203.571094 Z" id="Shape"></path>
        </g>
    </g>
</svg>