<?xml version="1.0" encoding="UTF-8"?>
<svg width="500px" height="500px" viewBox="0 0 500 500" version="1.1" xmlns="http://www.w3.org/2000/svg" xmlns:xlink="http://www.w3.org/1999/xlink">
    <title>sunglasses</title>
    <g id="sunglasses" stroke="none" stroke-width="1" fill="none" fill-rule="evenodd">
        <g id="sunglasses-solid" transform="translate(0.000000, 55.000000)" fill="#000000" fill-rule="nonzero">
            <path d="M498.342014,216.475694 L458.984375,58.7326389 C453.837288,38.0839193 440.304557,20.5209958 421.650231,10.2799869 C402.995906,0.0389780707 380.913482,-1.95040631 360.729167,4.79166667 L347.491319,9.20138889 C343.994346,10.3660047 341.103702,12.8728687 339.456011,16.1698774 C337.808321,19.4668862 337.538725,23.2836272 338.706597,26.7795139 L343.098958,39.9305556 C345.520876,47.2028242 353.376248,51.13828 360.651042,48.7239583 L372.100694,44.9131944 C381.536458,41.7621528 392.065972,41.8142361 400.876736,46.4149306 C409.743296,50.9647663 416.198166,59.1394566 418.567708,68.8194444 L451.961806,202.352431 C429.130387,195.2553 405.367258,191.606861 381.458333,191.527778 C351.293403,191.527778 317.222222,197.604167 281.762153,214.748264 L218.237847,214.748264 C182.777778,197.604167 148.732639,191.527778 118.541667,191.527778 C94.6336665,191.601887 70.8706534,195.244457 48.0381944,202.335069 L81.4322917,68.828125 C83.8016902,59.1459247 90.2562333,50.9684809 99.1232639,46.4149306 C107.934028,41.8229167 118.463542,41.7795139 127.899306,44.9131944 L139.322917,48.7239583 C142.819937,49.8914425 146.637653,49.6206407 149.934862,47.9712222 C153.23207,46.3218037 155.738199,43.4291216 156.901042,39.9305556 L161.293403,26.7447917 C163.702828,19.4751439 159.772938,11.6270154 152.508681,9.20138889 L139.270833,4.79166667 C119.087692,-1.94787539 97.0076298,0.0416016982 78.3542881,10.2804224 C59.7009463,20.5192432 46.1670203,38.0782873 41.015625,58.7239583 L1.65798611,216.475694 C0.641971998,220.885447 0.0863338966,225.388734 0,229.913194 L0,290.894097 C0,345.486111 44.7829861,389.756944 99.9913194,389.756944 L132.213542,389.756944 C184.539931,389.756944 228.029514,349.878472 231.935764,298.289931 L234.479167,264.756944 L265.520833,264.756944 L268.064236,298.289931 C271.970486,349.878472 315.460069,389.756944 367.786458,389.756944 L400.008681,389.756944 C455.217014,389.756944 500.000146,345.486111 500.000146,290.911458 L500.000146,229.930556 C500.010506,225.394015 499.453521,220.873974 498.342014,216.475694 Z M55.7204861,292.456597 C55.7204861,291.927083 55.5555556,291.432292 55.5555556,290.894097 L55.5555556,258.298611 C75.7686502,251.004821 97.0792259,247.217709 118.567708,247.100694 C126.501736,247.100694 134.314236,248.151042 142.126736,249.253472 L55.7204861,292.456597 Z M323.194444,290.659722 L320.746528,258.298611 C340.134499,250.905236 360.708506,247.110488 381.458333,247.100694 C389.804609,247.160658 398.135962,247.816259 406.388889,249.0625 L323.194444,290.659722 Z" id="Shape"></path>
        </g>
    </g>
</svg>