<?xml version="1.0" encoding="UTF-8"?>
<svg width="500px" height="500px" viewBox="0 0 500 500" version="1.1" xmlns="http://www.w3.org/2000/svg" xmlns:xlink="http://www.w3.org/1999/xlink">
    <title>taco</title>
    <g id="taco" stroke="none" stroke-width="1" fill="none" fill-rule="evenodd">
        <g id="taco-duotone" transform="translate(0.000000, 32.000000)" fill-rule="nonzero">
            <path d="M249.512671,155.945419 C122.631579,155.945419 17.6803119,260.623782 0.311890838,396.764133 C-2.36842105,417.797271 12.6705653,436.647173 31.7348928,436.647173 L467.290448,436.647173 C486.354776,436.647173 501.403509,417.797271 498.71345,396.764133 C481.345029,260.623782 376.393762,155.945419 249.512671,155.945419 Z M109.161793,374.269006 C100.549166,374.269006 93.5672515,367.287092 93.5672515,358.674464 C93.5672515,350.061836 100.549166,343.079922 109.161793,343.079922 C117.774421,343.079922 124.756335,350.061836 124.756335,358.674464 C124.756335,367.287092 117.774421,374.269006 109.161793,374.269006 Z M171.539961,311.890838 C162.927333,311.890838 155.945419,304.908924 155.945419,296.296296 C155.945419,287.683669 162.927333,280.701754 171.539961,280.701754 C180.152589,280.701754 187.134503,287.683669 187.134503,296.296296 C187.134503,304.908924 180.152589,311.890838 171.539961,311.890838 Z" id="Shape" fill="#FFD44A"></path>
            <path d="M456.725146,149.931774 C447.475634,144.532164 437.894737,138.927875 433.615984,132.846004 C428.996101,126.325536 426.471735,114.805068 424.035088,103.606238 C420.185185,85.9844055 415.808967,66.0038986 400.994152,54.2495127 C385.701754,42.1150097 365.906433,43.5282651 348.362573,44.6881092 C337.846004,45.4288499 326.920078,46.1500975 319.922027,43.6159844 C313.167641,41.1695906 305.185185,33.7329435 297.504873,26.5497076 C269.191033,0.165692008 248.128655,-16.8323587 201.617934,26.5009747 C193.898635,33.6842105 185.916179,41.1208577 179.20078,43.5672515 C172.163743,46.1013645 161.276803,45.380117 150.760234,44.6393762 C133.216374,43.4307992 113.411306,42.0662768 98.128655,54.2007797 C83.3138402,65.9551657 78.9473684,85.9356725 75.0487329,103.557505 C72.6120858,114.727096 70.0877193,126.247563 65.4678363,132.797271 C61.1890838,138.879142 51.6081871,144.493177 42.3586745,149.883041 C27.2904483,158.752437 10.0779727,168.781676 3.10916179,187.368421 C-3.52826511,204.990253 2.13450292,224.11306 7.16374269,240.974659 C7.11479776,241.044951 7.11479776,241.138285 7.16374269,241.208577 C9.64030143,250.160541 11.1210052,259.358555 11.5789474,268.635478 C62.3781676,181.783626 150.984405,124.756335 249.512671,124.756335 C348.040936,124.756335 436.647173,181.793372 487.465887,268.654971 C487.914295,259.393056 489.3952,250.210139 491.881092,241.276803 C491.892234,241.18846 491.918616,241.102718 491.959064,241.023392 C496.968811,224.17154 502.680312,205.019493 496.013645,187.417154 C489.044834,168.840156 471.881092,158.80117 456.725146,149.931774 Z" id="Shape" fill="#21A83F"></path>
            <path d="M109.161793,343.079922 C100.549166,343.079922 93.5672515,350.061836 93.5672515,358.674464 C93.5672515,367.287092 100.549166,374.269006 109.161793,374.269006 C117.774421,374.269006 124.756335,367.287092 124.756335,358.674464 C124.756335,350.061836 117.774421,343.079922 109.161793,343.079922 Z" id="Path" fill="#D0A61E"></path>
            <path d="M171.539961,280.701754 C162.927333,280.701754 155.945419,287.683669 155.945419,296.296296 C155.945419,304.908924 162.927333,311.890838 171.539961,311.890838 C180.152589,311.890838 187.134503,304.908924 187.134503,296.296296 C187.134503,287.683669 180.152589,280.701754 171.539961,280.701754 Z" id="Path" fill="#D0A61E"></path>
        </g>
    </g>
</svg>