<?xml version="1.0" encoding="UTF-8"?>
<svg width="1024px" height="768px" viewBox="0 0 1024 768" version="1.1" xmlns="http://www.w3.org/2000/svg" xmlns:xlink="http://www.w3.org/1999/xlink">
    <title>7.9” iPad mini</title>
    <g id="7.9”-iPad-mini" stroke="none" stroke-width="1" fill="none" fill-rule="evenodd">
        <g id="shopping-cart-duotone" transform="translate(207.458715, 394.404147) scale(-1, 1) rotate(-25.000000) translate(-207.458715, -394.404147) translate(138.958715, 333.904147)" fill-rule="nonzero">
            <path d="M130.423428,14.8818461 L37.476784,14.8818461 L49.8668303,75.7791845 L119.235472,75.7791845 C121.886708,75.7791845 124.184967,73.9345003 124.772658,71.3355819 L135.958248,21.856495 C136.653109,18.7823273 134.737812,15.7238365 131.679943,15.0245749 C131.2678,14.929511 130.84628,14.8818461 130.423428,14.8818461 Z" id="Path" fill="#FF0000" opacity="0.4"></path>
            <path d="M52.3544224,82.9448066 L115.905069,82.9448066 C117.633307,82.9450167 119.267511,83.7260581 120.345559,85.0670665 C121.423606,86.4080749 121.828304,88.1632712 121.445212,89.836318 L120.138306,95.543204 C125.341384,98.0447902 128.311936,103.604901 127.479703,109.284416 C126.647469,114.96393 122.204334,119.453364 116.498974,120.379564 C110.793615,121.305763 105.141475,118.455182 102.530324,113.334662 C99.9191723,108.214141 100.951044,102.004282 105.080482,97.9876692 L55.446485,97.9876692 C59.5156785,101.944642 60.584303,108.039709 58.1011404,113.128912 C55.6179779,118.218115 50.1380106,121.164027 44.4879162,120.447086 C38.8378218,119.730146 34.2803862,115.510588 33.1664265,109.964946 C32.0524669,104.419304 34.6309511,98.7870182 39.5718451,95.9733358 L22.9395788,15.2519249 L6.39491312,15.2519249 C3.25672196,15.2519249 0.712715387,12.7263303 0.712715387,9.61085147 L0.712715387,5.85013583 C0.712715387,2.73465698 3.25672196,0.209062357 6.39491312,0.209062357 L30.6697353,0.209062357 C33.3651318,0.213864022 35.6862523,2.09796854 36.2264512,4.71957069 L52.3544224,82.9448066 Z" id="Path" fill="#960000"></path>
        </g>
        <g id="shopping-cart-duotone-copy-2" transform="translate(789.737551, 645.093628) scale(-1, 1) rotate(-25.000000) translate(-789.737551, -645.093628) translate(721.237551, 584.593628)" fill-rule="nonzero">
            <path d="M130.423428,14.8818461 L37.476784,14.8818461 L49.8668303,75.7791845 L119.235472,75.7791845 C121.886708,75.7791845 124.184967,73.9345003 124.772658,71.3355819 L135.958248,21.856495 C136.653109,18.7823273 134.737812,15.7238365 131.679943,15.0245749 C131.2678,14.929511 130.84628,14.8818461 130.423428,14.8818461 Z" id="Path" fill="#FF0000" opacity="0.4"></path>
            <path d="M52.3544224,82.9448066 L115.905069,82.9448066 C117.633307,82.9450167 119.267511,83.7260581 120.345559,85.0670665 C121.423606,86.4080749 121.828304,88.1632712 121.445212,89.836318 L120.138306,95.543204 C125.341384,98.0447902 128.311936,103.604901 127.479703,109.284416 C126.647469,114.96393 122.204334,119.453364 116.498974,120.379564 C110.793615,121.305763 105.141475,118.455182 102.530324,113.334662 C99.9191723,108.214141 100.951044,102.004282 105.080482,97.9876692 L55.446485,97.9876692 C59.5156785,101.944642 60.584303,108.039709 58.1011404,113.128912 C55.6179779,118.218115 50.1380106,121.164027 44.4879162,120.447086 C38.8378218,119.730146 34.2803862,115.510588 33.1664265,109.964946 C32.0524669,104.419304 34.6309511,98.7870182 39.5718451,95.9733358 L22.9395788,15.2519249 L6.39491312,15.2519249 C3.25672196,15.2519249 0.712715387,12.7263303 0.712715387,9.61085147 L0.712715387,5.85013583 C0.712715387,2.73465698 3.25672196,0.209062357 6.39491312,0.209062357 L30.6697353,0.209062357 C33.3651318,0.213864022 35.6862523,2.09796854 36.2264512,4.71957069 L52.3544224,82.9448066 Z" id="Path" fill="#960000"></path>
        </g>
        <g id="shopping-cart-duotone-copy-3" opacity="0.75" transform="translate(685.350617, 388.843275) rotate(-25.000000) translate(-685.350617, -388.843275) translate(650.850617, 358.343275)" fill-rule="nonzero">
            <path d="M65.2117139,7.44092304 L18.738392,7.44092304 L24.9334151,37.8895922 L59.6177358,37.8895922 C60.9433538,37.8895922 62.0924836,36.9672501 62.386329,35.6677909 L67.9791239,10.9282475 C68.3265547,9.39116366 67.3689062,7.86191824 65.8399715,7.51228747 C65.6339,7.46475548 65.4231402,7.44092304 65.2117139,7.44092304 Z" id="Path" fill="#FF0000" opacity="0.4"></path>
            <path d="M26.1772112,41.4724033 L57.9525344,41.4724033 C58.8166533,41.4725084 59.6337554,41.8630291 60.1727793,42.5335333 C60.7118031,43.2040375 60.9141522,44.0816356 60.7226058,44.918159 L60.0691531,47.771602 C62.6706919,49.0223951 64.1559678,51.8024507 63.7398513,54.642208 C63.3237347,57.4819652 61.1021668,59.7266819 58.2494871,60.1897818 C55.3968073,60.6528816 52.5707374,59.2275911 51.2651618,56.6673309 C49.9595862,54.1070706 50.4755219,51.0021412 52.5402411,48.9938346 L27.7232425,48.9938346 C29.7578393,50.9723208 30.2921515,54.0198544 29.0505702,56.564456 C27.8089889,59.1090576 25.0690053,60.5820134 22.2439581,60.2235432 C19.4189109,59.8650729 17.1401931,57.7552939 16.5832133,54.9824729 C16.0262334,52.2096518 17.3154756,49.3935091 19.7859226,47.9866679 L11.4697894,7.62596247 L3.19745656,7.62596247 C1.62836098,7.62596247 0.356357693,6.36316516 0.356357693,4.80542574 L0.356357693,2.92506791 C0.356357693,1.36732849 1.62836098,0.104531179 3.19745656,0.104531179 L15.3348677,0.104531179 C16.6825659,0.106932011 17.8431261,1.04898427 18.1132256,2.35978534 L26.1772112,41.4724033 Z" id="Path" fill="#960000"></path>
        </g>
        <g id="shopping-cart-duotone-copy-4" opacity="0.75" transform="translate(176.237913, 228.791815) rotate(-25.000000) translate(-176.237913, -228.791815) translate(141.737913, 198.291815)" fill-rule="nonzero">
            <path d="M65.2117139,7.44092304 L18.738392,7.44092304 L24.9334151,37.8895922 L59.6177358,37.8895922 C60.9433538,37.8895922 62.0924836,36.9672501 62.386329,35.6677909 L67.9791239,10.9282475 C68.3265547,9.39116366 67.3689062,7.86191824 65.8399715,7.51228747 C65.6339,7.46475548 65.4231402,7.44092304 65.2117139,7.44092304 Z" id="Path" fill="#FF0000" opacity="0.4"></path>
            <path d="M26.1772112,41.4724033 L57.9525344,41.4724033 C58.8166533,41.4725084 59.6337554,41.8630291 60.1727793,42.5335333 C60.7118031,43.2040375 60.9141522,44.0816356 60.7226058,44.918159 L60.0691531,47.771602 C62.6706919,49.0223951 64.1559678,51.8024507 63.7398513,54.642208 C63.3237347,57.4819652 61.1021668,59.7266819 58.2494871,60.1897818 C55.3968073,60.6528816 52.5707374,59.2275911 51.2651618,56.6673309 C49.9595862,54.1070706 50.4755219,51.0021412 52.5402411,48.9938346 L27.7232425,48.9938346 C29.7578393,50.9723208 30.2921515,54.0198544 29.0505702,56.564456 C27.8089889,59.1090576 25.0690053,60.5820134 22.2439581,60.2235432 C19.4189109,59.8650729 17.1401931,57.7552939 16.5832133,54.9824729 C16.0262334,52.2096518 17.3154756,49.3935091 19.7859226,47.9866679 L11.4697894,7.62596247 L3.19745656,7.62596247 C1.62836098,7.62596247 0.356357693,6.36316516 0.356357693,4.80542574 L0.356357693,2.92506791 C0.356357693,1.36732849 1.62836098,0.104531179 3.19745656,0.104531179 L15.3348677,0.104531179 C16.6825659,0.106932011 17.8431261,1.04898427 18.1132256,2.35978534 L26.1772112,41.4724033 Z" id="Path" fill="#960000"></path>
        </g>
        <g id="shopping-cart-duotone-copy-6" opacity="0.75" transform="translate(710.731761, 243.124644) rotate(-25.000000) translate(-710.731761, -243.124644) translate(676.231761, 212.624644)" fill-rule="nonzero">
            <path d="M65.2117139,7.44092304 L18.738392,7.44092304 L24.9334151,37.8895922 L59.6177358,37.8895922 C60.9433538,37.8895922 62.0924836,36.9672501 62.386329,35.6677909 L67.9791239,10.9282475 C68.3265547,9.39116366 67.3689062,7.86191824 65.8399715,7.51228747 C65.6339,7.46475548 65.4231402,7.44092304 65.2117139,7.44092304 Z" id="Path" fill="#FF0000" opacity="0.4"></path>
            <path d="M26.1772112,41.4724033 L57.9525344,41.4724033 C58.8166533,41.4725084 59.6337554,41.8630291 60.1727793,42.5335333 C60.7118031,43.2040375 60.9141522,44.0816356 60.7226058,44.918159 L60.0691531,47.771602 C62.6706919,49.0223951 64.1559678,51.8024507 63.7398513,54.642208 C63.3237347,57.4819652 61.1021668,59.7266819 58.2494871,60.1897818 C55.3968073,60.6528816 52.5707374,59.2275911 51.2651618,56.6673309 C49.9595862,54.1070706 50.4755219,51.0021412 52.5402411,48.9938346 L27.7232425,48.9938346 C29.7578393,50.9723208 30.2921515,54.0198544 29.0505702,56.564456 C27.8089889,59.1090576 25.0690053,60.5820134 22.2439581,60.2235432 C19.4189109,59.8650729 17.1401931,57.7552939 16.5832133,54.9824729 C16.0262334,52.2096518 17.3154756,49.3935091 19.7859226,47.9866679 L11.4697894,7.62596247 L3.19745656,7.62596247 C1.62836098,7.62596247 0.356357693,6.36316516 0.356357693,4.80542574 L0.356357693,2.92506791 C0.356357693,1.36732849 1.62836098,0.104531179 3.19745656,0.104531179 L15.3348677,0.104531179 C16.6825659,0.106932011 17.8431261,1.04898427 18.1132256,2.35978534 L26.1772112,41.4724033 Z" id="Path" fill="#960000"></path>
        </g>
        <g id="shopping-cart-duotone-copy-5" opacity="0.75" transform="translate(849.240286, 509.912983) rotate(-25.000000) translate(-849.240286, -509.912983) translate(814.740286, 479.412983)" fill-rule="nonzero">
            <path d="M65.2117139,7.44092304 L18.738392,7.44092304 L24.9334151,37.8895922 L59.6177358,37.8895922 C60.9433538,37.8895922 62.0924836,36.9672501 62.386329,35.6677909 L67.9791239,10.9282475 C68.3265547,9.39116366 67.3689062,7.86191824 65.8399715,7.51228747 C65.6339,7.46475548 65.4231402,7.44092304 65.2117139,7.44092304 Z" id="Path" fill="#FF0000" opacity="0.4"></path>
            <path d="M26.1772112,41.4724033 L57.9525344,41.4724033 C58.8166533,41.4725084 59.6337554,41.8630291 60.1727793,42.5335333 C60.7118031,43.2040375 60.9141522,44.0816356 60.7226058,44.918159 L60.0691531,47.771602 C62.6706919,49.0223951 64.1559678,51.8024507 63.7398513,54.642208 C63.3237347,57.4819652 61.1021668,59.7266819 58.2494871,60.1897818 C55.3968073,60.6528816 52.5707374,59.2275911 51.2651618,56.6673309 C49.9595862,54.1070706 50.4755219,51.0021412 52.5402411,48.9938346 L27.7232425,48.9938346 C29.7578393,50.9723208 30.2921515,54.0198544 29.0505702,56.564456 C27.8089889,59.1090576 25.0690053,60.5820134 22.2439581,60.2235432 C19.4189109,59.8650729 17.1401931,57.7552939 16.5832133,54.9824729 C16.0262334,52.2096518 17.3154756,49.3935091 19.7859226,47.9866679 L11.4697894,7.62596247 L3.19745656,7.62596247 C1.62836098,7.62596247 0.356357693,6.36316516 0.356357693,4.80542574 L0.356357693,2.92506791 C0.356357693,1.36732849 1.62836098,0.104531179 3.19745656,0.104531179 L15.3348677,0.104531179 C16.6825659,0.106932011 17.8431261,1.04898427 18.1132256,2.35978534 L26.1772112,41.4724033 Z" id="Path" fill="#960000"></path>
        </g>
        <g id="shopping-cart-duotone-copy-8" opacity="0.75" transform="translate(408.523135, 681.730474) rotate(-25.000000) translate(-408.523135, -681.730474) translate(374.023135, 651.230474)" fill-rule="nonzero">
            <path d="M65.2117139,7.44092304 L18.738392,7.44092304 L24.9334151,37.8895922 L59.6177358,37.8895922 C60.9433538,37.8895922 62.0924836,36.9672501 62.386329,35.6677909 L67.9791239,10.9282475 C68.3265547,9.39116366 67.3689062,7.86191824 65.8399715,7.51228747 C65.6339,7.46475548 65.4231402,7.44092304 65.2117139,7.44092304 Z" id="Path" fill="#FF0000" opacity="0.4"></path>
            <path d="M26.1772112,41.4724033 L57.9525344,41.4724033 C58.8166533,41.4725084 59.6337554,41.8630291 60.1727793,42.5335333 C60.7118031,43.2040375 60.9141522,44.0816356 60.7226058,44.918159 L60.0691531,47.771602 C62.6706919,49.0223951 64.1559678,51.8024507 63.7398513,54.642208 C63.3237347,57.4819652 61.1021668,59.7266819 58.2494871,60.1897818 C55.3968073,60.6528816 52.5707374,59.2275911 51.2651618,56.6673309 C49.9595862,54.1070706 50.4755219,51.0021412 52.5402411,48.9938346 L27.7232425,48.9938346 C29.7578393,50.9723208 30.2921515,54.0198544 29.0505702,56.564456 C27.8089889,59.1090576 25.0690053,60.5820134 22.2439581,60.2235432 C19.4189109,59.8650729 17.1401931,57.7552939 16.5832133,54.9824729 C16.0262334,52.2096518 17.3154756,49.3935091 19.7859226,47.9866679 L11.4697894,7.62596247 L3.19745656,7.62596247 C1.62836098,7.62596247 0.356357693,6.36316516 0.356357693,4.80542574 L0.356357693,2.92506791 C0.356357693,1.36732849 1.62836098,0.104531179 3.19745656,0.104531179 L15.3348677,0.104531179 C16.6825659,0.106932011 17.8431261,1.04898427 18.1132256,2.35978534 L26.1772112,41.4724033 Z" id="Path" fill="#960000"></path>
        </g>
        <g id="shopping-cart-duotone-copy-7" opacity="0.75" transform="translate(261.885221, 507.162666) rotate(-25.000000) translate(-261.885221, -507.162666) translate(227.385221, 476.662666)" fill-rule="nonzero">
            <path d="M65.2117139,7.44092304 L18.738392,7.44092304 L24.9334151,37.8895922 L59.6177358,37.8895922 C60.9433538,37.8895922 62.0924836,36.9672501 62.386329,35.6677909 L67.9791239,10.9282475 C68.3265547,9.39116366 67.3689062,7.86191824 65.8399715,7.51228747 C65.6339,7.46475548 65.4231402,7.44092304 65.2117139,7.44092304 Z" id="Path" fill="#FF0000" opacity="0.4"></path>
            <path d="M26.1772112,41.4724033 L57.9525344,41.4724033 C58.8166533,41.4725084 59.6337554,41.8630291 60.1727793,42.5335333 C60.7118031,43.2040375 60.9141522,44.0816356 60.7226058,44.918159 L60.0691531,47.771602 C62.6706919,49.0223951 64.1559678,51.8024507 63.7398513,54.642208 C63.3237347,57.4819652 61.1021668,59.7266819 58.2494871,60.1897818 C55.3968073,60.6528816 52.5707374,59.2275911 51.2651618,56.6673309 C49.9595862,54.1070706 50.4755219,51.0021412 52.5402411,48.9938346 L27.7232425,48.9938346 C29.7578393,50.9723208 30.2921515,54.0198544 29.0505702,56.564456 C27.8089889,59.1090576 25.0690053,60.5820134 22.2439581,60.2235432 C19.4189109,59.8650729 17.1401931,57.7552939 16.5832133,54.9824729 C16.0262334,52.2096518 17.3154756,49.3935091 19.7859226,47.9866679 L11.4697894,7.62596247 L3.19745656,7.62596247 C1.62836098,7.62596247 0.356357693,6.36316516 0.356357693,4.80542574 L0.356357693,2.92506791 C0.356357693,1.36732849 1.62836098,0.104531179 3.19745656,0.104531179 L15.3348677,0.104531179 C16.6825659,0.106932011 17.8431261,1.04898427 18.1132256,2.35978534 L26.1772112,41.4724033 Z" id="Path" fill="#960000"></path>
        </g>
        <g id="shopping-cart-duotone-copy" transform="translate(446.766638, 258.110104) scale(-1, 1) rotate(-25.000000) translate(-446.766638, -258.110104) translate(378.266638, 197.610104)" fill-rule="nonzero">
            <path d="M130.423428,14.8818461 L37.476784,14.8818461 L49.8668303,75.7791845 L119.235472,75.7791845 C121.886708,75.7791845 124.184967,73.9345003 124.772658,71.3355819 L135.958248,21.856495 C136.653109,18.7823273 134.737812,15.7238365 131.679943,15.0245749 C131.2678,14.929511 130.84628,14.8818461 130.423428,14.8818461 Z" id="Path" fill="#FF0000" opacity="0.4"></path>
            <path d="M52.3544224,82.9448066 L115.905069,82.9448066 C117.633307,82.9450167 119.267511,83.7260581 120.345559,85.0670665 C121.423606,86.4080749 121.828304,88.1632712 121.445212,89.836318 L120.138306,95.543204 C125.341384,98.0447902 128.311936,103.604901 127.479703,109.284416 C126.647469,114.96393 122.204334,119.453364 116.498974,120.379564 C110.793615,121.305763 105.141475,118.455182 102.530324,113.334662 C99.9191723,108.214141 100.951044,102.004282 105.080482,97.9876692 L55.446485,97.9876692 C59.5156785,101.944642 60.584303,108.039709 58.1011404,113.128912 C55.6179779,118.218115 50.1380106,121.164027 44.4879162,120.447086 C38.8378218,119.730146 34.2803862,115.510588 33.1664265,109.964946 C32.0524669,104.419304 34.6309511,98.7870182 39.5718451,95.9733358 L22.9395788,15.2519249 L6.39491312,15.2519249 C3.25672196,15.2519249 0.712715387,12.7263303 0.712715387,9.61085147 L0.712715387,5.85013583 C0.712715387,2.73465698 3.25672196,0.209062357 6.39491312,0.209062357 L30.6697353,0.209062357 C33.3651318,0.213864022 35.6862523,2.09796854 36.2264512,4.71957069 L52.3544224,82.9448066 Z" id="Path" fill="#960000"></path>
        </g>
        <g id="shopping-bag-duotone" transform="translate(805.074564, 328.549584) rotate(-26.000000) translate(-805.074564, -328.549584) translate(746.574564, 262.049584)" fill-rule="nonzero">
            <path d="M0.808230326,41.5088026 L0.808230326,41.4752275 L25.7271846,41.4907237 L25.7271846,33.2260849 C25.7427589,14.997391 40.6551956,0.185608695 58.9758185,0.185608695 C77.2964413,0.185608695 92.2010908,15.0335488 92.1803467,33.2622427 L92.1803467,41.5088026 L75.5676888,41.5088026 L75.5676888,33.2441638 C75.573423,24.115296 68.1403411,16.7102613 58.9654356,16.7045557 C49.79053,16.6988502 42.3481509,24.0946344 42.3424165,33.2235022 L42.3424165,41.488141 L58.9550527,41.488141 L0.808230326,41.5088026 Z" id="Path" fill="#0C80FF" opacity="0.4"></path>
            <path d="M0.686518391,41.1974791 L0.645085912,111.740945 C0.641655298,117.243678 2.82074597,122.522399 6.70298668,126.415851 C10.5852274,130.309302 15.852605,132.498552 21.3463561,132.501991 L95.9175211,132.543487 C107.357665,132.543487 116.631734,123.254256 116.631734,111.795409 L116.673162,41.2519428 L0.686518391,41.1974791 Z M33.8137228,64.0385197 C30.3816796,64.0385197 27.599459,61.2517504 27.599459,57.8140962 C27.599459,54.3764421 30.3816796,51.5896728 33.8137228,51.5896728 C37.2457659,51.5896728 40.0279865,54.3764421 40.0279865,57.8140962 C40.0279865,61.2517504 37.2457659,64.0385197 33.8137228,64.0385197 Z M83.5278328,64.0696418 C80.0957897,64.0696418 77.313569,61.2828725 77.313569,57.8452183 C77.313569,54.4075642 80.0957897,51.6207949 83.5278328,51.6207949 C86.9598759,51.6207949 89.7420965,54.4075642 89.7420965,57.8452183 C89.7420965,61.2828725 86.9598759,64.0696418 83.5278328,64.0696418 Z" id="Shape" fill="#007AFF"></path>
        </g>
        <g id="shopping-bag-duotone-copy-5" transform="translate(243.825818, 624.486213) rotate(-26.000000) translate(-243.825818, -624.486213) translate(185.325818, 557.986213)" fill-rule="nonzero">
            <path d="M0.808230326,41.5088026 L0.808230326,41.4752275 L25.7271846,41.4907237 L25.7271846,33.2260849 C25.7427589,14.997391 40.6551956,0.185608695 58.9758185,0.185608695 C77.2964413,0.185608695 92.2010908,15.0335488 92.1803467,33.2622427 L92.1803467,41.5088026 L75.5676888,41.5088026 L75.5676888,33.2441638 C75.573423,24.115296 68.1403411,16.7102613 58.9654356,16.7045557 C49.79053,16.6988502 42.3481509,24.0946344 42.3424165,33.2235022 L42.3424165,41.488141 L58.9550527,41.488141 L0.808230326,41.5088026 Z" id="Path" fill="#0C80FF" opacity="0.4"></path>
            <path d="M0.686518391,41.1974791 L0.645085912,111.740945 C0.641655298,117.243678 2.82074597,122.522399 6.70298668,126.415851 C10.5852274,130.309302 15.852605,132.498552 21.3463561,132.501991 L95.9175211,132.543487 C107.357665,132.543487 116.631734,123.254256 116.631734,111.795409 L116.673162,41.2519428 L0.686518391,41.1974791 Z M33.8137228,64.0385197 C30.3816796,64.0385197 27.599459,61.2517504 27.599459,57.8140962 C27.599459,54.3764421 30.3816796,51.5896728 33.8137228,51.5896728 C37.2457659,51.5896728 40.0279865,54.3764421 40.0279865,57.8140962 C40.0279865,61.2517504 37.2457659,64.0385197 33.8137228,64.0385197 Z M83.5278328,64.0696418 C80.0957897,64.0696418 77.313569,61.2828725 77.313569,57.8452183 C77.313569,54.4075642 80.0957897,51.6207949 83.5278328,51.6207949 C86.9598759,51.6207949 89.7420965,54.4075642 89.7420965,57.8452183 C89.7420965,61.2828725 86.9598759,64.0696418 83.5278328,64.0696418 Z" id="Shape" fill="#007AFF"></path>
        </g>
        <g id="shopping-bag-duotone-copy-6" transform="translate(293.137754, 233.003323) rotate(-26.000000) translate(-293.137754, -233.003323) translate(234.637754, 166.503323)" fill-rule="nonzero">
            <path d="M0.808230326,41.5088026 L0.808230326,41.4752275 L25.7271846,41.4907237 L25.7271846,33.2260849 C25.7427589,14.997391 40.6551956,0.185608695 58.9758185,0.185608695 C77.2964413,0.185608695 92.2010908,15.0335488 92.1803467,33.2622427 L92.1803467,41.5088026 L75.5676888,41.5088026 L75.5676888,33.2441638 C75.573423,24.115296 68.1403411,16.7102613 58.9654356,16.7045557 C49.79053,16.6988502 42.3481509,24.0946344 42.3424165,33.2235022 L42.3424165,41.488141 L58.9550527,41.488141 L0.808230326,41.5088026 Z" id="Path" fill="#0C80FF" opacity="0.4"></path>
            <path d="M0.686518391,41.1974791 L0.645085912,111.740945 C0.641655298,117.243678 2.82074597,122.522399 6.70298668,126.415851 C10.5852274,130.309302 15.852605,132.498552 21.3463561,132.501991 L95.9175211,132.543487 C107.357665,132.543487 116.631734,123.254256 116.631734,111.795409 L116.673162,41.2519428 L0.686518391,41.1974791 Z M33.8137228,64.0385197 C30.3816796,64.0385197 27.599459,61.2517504 27.599459,57.8140962 C27.599459,54.3764421 30.3816796,51.5896728 33.8137228,51.5896728 C37.2457659,51.5896728 40.0279865,54.3764421 40.0279865,57.8140962 C40.0279865,61.2517504 37.2457659,64.0385197 33.8137228,64.0385197 Z M83.5278328,64.0696418 C80.0957897,64.0696418 77.313569,61.2828725 77.313569,57.8452183 C77.313569,54.4075642 80.0957897,51.6207949 83.5278328,51.6207949 C86.9598759,51.6207949 89.7420965,54.4075642 89.7420965,57.8452183 C89.7420965,61.2828725 86.9598759,64.0696418 83.5278328,64.0696418 Z" id="Shape" fill="#007AFF"></path>
        </g>
        <g id="shopping-bag-duotone-copy" opacity="0.75" transform="translate(617.913783, 294.725132) scale(-1, 1) rotate(-26.000000) translate(-617.913783, -294.725132) translate(588.413783, 261.225132)" fill-rule="nonzero">
            <path d="M0.404115163,20.7544013 L0.404115163,20.7376138 L12.8635923,20.7453619 L12.8635923,16.6130425 C12.8713795,7.49869551 20.3275978,0.0928043476 29.4879092,0.0928043476 C38.6482206,0.0928043476 46.1005454,7.5167744 46.0901733,16.6311214 L46.0901733,20.7544013 L37.7838444,20.7544013 L37.7838444,16.6220819 C37.7867115,12.057648 34.0701705,8.35513063 29.4827178,8.35227785 C24.895265,8.34942508 21.1740755,12.0473172 21.1712082,16.6117511 L21.1712082,20.7440705 L29.4775263,20.7440705 L0.404115163,20.7544013 Z" id="Path" fill="#0C80FF" opacity="0.4"></path>
            <path d="M0.343259195,20.5987396 L0.322542956,55.8704724 C0.320827649,58.6218388 1.41037299,61.2611997 3.35149334,63.2079255 C5.2926137,65.1546512 7.92630252,66.2492762 10.673178,66.2509953 L47.9587606,66.2717434 C53.6788324,66.2717434 58.3158668,61.6271279 58.3158668,55.8977043 L58.336581,20.6259714 L0.343259195,20.5987396 Z M16.9068614,32.0192598 C15.1908398,32.0192598 13.7997295,30.6258752 13.7997295,28.9070481 C13.7997295,27.188221 15.1908398,25.7948364 16.9068614,25.7948364 C18.6228829,25.7948364 20.0139933,27.188221 20.0139933,28.9070481 C20.0139933,30.6258752 18.6228829,32.0192598 16.9068614,32.0192598 Z M41.7639164,32.0348209 C40.0478948,32.0348209 38.6567845,30.6414362 38.6567845,28.9226092 C38.6567845,27.2037821 40.0478948,25.8103974 41.7639164,25.8103974 C43.4799379,25.8103974 44.8710483,27.2037821 44.8710483,28.9226092 C44.8710483,30.6414362 43.4799379,32.0348209 41.7639164,32.0348209 Z" id="Shape" fill="#007AFF"></path>
        </g>
        <g id="shopping-bag-duotone-copy-2" opacity="0.75" transform="translate(380.818497, 353.447566) scale(-1, 1) rotate(-26.000000) translate(-380.818497, -353.447566) translate(351.318497, 319.947566)" fill-rule="nonzero">
            <path d="M0.404115163,20.7544013 L0.404115163,20.7376138 L12.8635923,20.7453619 L12.8635923,16.6130425 C12.8713795,7.49869551 20.3275978,0.0928043476 29.4879092,0.0928043476 C38.6482206,0.0928043476 46.1005454,7.5167744 46.0901733,16.6311214 L46.0901733,20.7544013 L37.7838444,20.7544013 L37.7838444,16.6220819 C37.7867115,12.057648 34.0701705,8.35513063 29.4827178,8.35227785 C24.895265,8.34942508 21.1740755,12.0473172 21.1712082,16.6117511 L21.1712082,20.7440705 L29.4775263,20.7440705 L0.404115163,20.7544013 Z" id="Path" fill="#0C80FF" opacity="0.4"></path>
            <path d="M0.343259195,20.5987396 L0.322542956,55.8704724 C0.320827649,58.6218388 1.41037299,61.2611997 3.35149334,63.2079255 C5.2926137,65.1546512 7.92630252,66.2492762 10.673178,66.2509953 L47.9587606,66.2717434 C53.6788324,66.2717434 58.3158668,61.6271279 58.3158668,55.8977043 L58.336581,20.6259714 L0.343259195,20.5987396 Z M16.9068614,32.0192598 C15.1908398,32.0192598 13.7997295,30.6258752 13.7997295,28.9070481 C13.7997295,27.188221 15.1908398,25.7948364 16.9068614,25.7948364 C18.6228829,25.7948364 20.0139933,27.188221 20.0139933,28.9070481 C20.0139933,30.6258752 18.6228829,32.0192598 16.9068614,32.0192598 Z M41.7639164,32.0348209 C40.0478948,32.0348209 38.6567845,30.6414362 38.6567845,28.9226092 C38.6567845,27.2037821 40.0478948,25.8103974 41.7639164,25.8103974 C43.4799379,25.8103974 44.8710483,27.2037821 44.8710483,28.9226092 C44.8710483,30.6414362 43.4799379,32.0348209 41.7639164,32.0348209 Z" id="Shape" fill="#007AFF"></path>
        </g>
        <g id="shopping-bag-duotone-copy-3" opacity="0.75" transform="translate(737.567745, 519.465310) scale(-1, 1) rotate(-26.000000) translate(-737.567745, -519.465310) translate(708.067745, 485.965310)" fill-rule="nonzero">
            <path d="M0.404115163,20.7544013 L0.404115163,20.7376138 L12.8635923,20.7453619 L12.8635923,16.6130425 C12.8713795,7.49869551 20.3275978,0.0928043476 29.4879092,0.0928043476 C38.6482206,0.0928043476 46.1005454,7.5167744 46.0901733,16.6311214 L46.0901733,20.7544013 L37.7838444,20.7544013 L37.7838444,16.6220819 C37.7867115,12.057648 34.0701705,8.35513063 29.4827178,8.35227785 C24.895265,8.34942508 21.1740755,12.0473172 21.1712082,16.6117511 L21.1712082,20.7440705 L29.4775263,20.7440705 L0.404115163,20.7544013 Z" id="Path" fill="#0C80FF" opacity="0.4"></path>
            <path d="M0.343259195,20.5987396 L0.322542956,55.8704724 C0.320827649,58.6218388 1.41037299,61.2611997 3.35149334,63.2079255 C5.2926137,65.1546512 7.92630252,66.2492762 10.673178,66.2509953 L47.9587606,66.2717434 C53.6788324,66.2717434 58.3158668,61.6271279 58.3158668,55.8977043 L58.336581,20.6259714 L0.343259195,20.5987396 Z M16.9068614,32.0192598 C15.1908398,32.0192598 13.7997295,30.6258752 13.7997295,28.9070481 C13.7997295,27.188221 15.1908398,25.7948364 16.9068614,25.7948364 C18.6228829,25.7948364 20.0139933,27.188221 20.0139933,28.9070481 C20.0139933,30.6258752 18.6228829,32.0192598 16.9068614,32.0192598 Z M41.7639164,32.0348209 C40.0478948,32.0348209 38.6567845,30.6414362 38.6567845,28.9226092 C38.6567845,27.2037821 40.0478948,25.8103974 41.7639164,25.8103974 C43.4799379,25.8103974 44.8710483,27.2037821 44.8710483,28.9226092 C44.8710483,30.6414362 43.4799379,32.0348209 41.7639164,32.0348209 Z" id="Shape" fill="#007AFF"></path>
        </g>
        <g id="shopping-bag-duotone-copy-4" opacity="0.75" transform="translate(629.516591, 677.508402) scale(-1, 1) rotate(-26.000000) translate(-629.516591, -677.508402) translate(600.016591, 644.008402)" fill-rule="nonzero">
            <path d="M0.404115163,20.7544013 L0.404115163,20.7376138 L12.8635923,20.7453619 L12.8635923,16.6130425 C12.8713795,7.49869551 20.3275978,0.0928043476 29.4879092,0.0928043476 C38.6482206,0.0928043476 46.1005454,7.5167744 46.0901733,16.6311214 L46.0901733,20.7544013 L37.7838444,20.7544013 L37.7838444,16.6220819 C37.7867115,12.057648 34.0701705,8.35513063 29.4827178,8.35227785 C24.895265,8.34942508 21.1740755,12.0473172 21.1712082,16.6117511 L21.1712082,20.7440705 L29.4775263,20.7440705 L0.404115163,20.7544013 Z" id="Path" fill="#0C80FF" opacity="0.4"></path>
            <path d="M0.343259195,20.5987396 L0.322542956,55.8704724 C0.320827649,58.6218388 1.41037299,61.2611997 3.35149334,63.2079255 C5.2926137,65.1546512 7.92630252,66.2492762 10.673178,66.2509953 L47.9587606,66.2717434 C53.6788324,66.2717434 58.3158668,61.6271279 58.3158668,55.8977043 L58.336581,20.6259714 L0.343259195,20.5987396 Z M16.9068614,32.0192598 C15.1908398,32.0192598 13.7997295,30.6258752 13.7997295,28.9070481 C13.7997295,27.188221 15.1908398,25.7948364 16.9068614,25.7948364 C18.6228829,25.7948364 20.0139933,27.188221 20.0139933,28.9070481 C20.0139933,30.6258752 18.6228829,32.0192598 16.9068614,32.0192598 Z M41.7639164,32.0348209 C40.0478948,32.0348209 38.6567845,30.6414362 38.6567845,28.9226092 C38.6567845,27.2037821 40.0478948,25.8103974 41.7639164,25.8103974 C43.4799379,25.8103974 44.8710483,27.2037821 44.8710483,28.9226092 C44.8710483,30.6414362 43.4799379,32.0348209 41.7639164,32.0348209 Z" id="Shape" fill="#007AFF"></path>
        </g>
        <g id="laugh-beam-solid" transform="translate(387.000000, 388.000000)" fill-rule="nonzero">
            <path d="M126,0 C56.3951613,0 0,56.3951613 0,126 C0,195.604839 56.3951613,252 126,252 C195.604839,252 252,195.604839 252,126 C252,56.3951613 195.604839,0 126,0 Z" id="Shape" fill="#FFC245"></path>
            <path d="M202.666935,151.403226 C198.145161,187.475806 167.356452,215.419355 130.064516,215.419355 L121.935484,215.419355 C84.6435484,215.419355 53.8548387,187.475806 49.3330645,151.403226 C48.7233871,146.576613 52.533871,142.258065 57.4112903,142.258065 L194.58871,142.258065 C199.466129,142.258065 203.276613,146.525806 202.666935,151.403226 Z" id="Path" fill="#413827"></path>
            <ellipse id="Oval" fill="#FF7445" cx="128.178674" cy="205.521614" rx="38.1268012" ry="10.8933718"></ellipse>
            <path d="M138.193548,101.308065 C139.870161,79.9185484 154.553226,65.0322581 166.645161,65.0322581 C178.737097,65.0322581 193.420161,79.9185484 195.096774,101.308065 C195.452419,105.677419 189.609677,107.354032 187.526613,103.594355 L182.7,94.9572581 C178.787903,87.9967742 172.945161,83.9830645 166.695968,83.9830645 C160.446774,83.9830645 154.604032,87.9967742 150.691935,94.9572581 L145.865323,103.594355 C143.731452,107.354032 137.837903,105.677419 138.193548,101.308065 Z" id="Path" fill="#413827"></path>
            <path d="M56.9032258,101.308065 C58.5798387,79.9185484 73.2629032,65.0322581 85.3548387,65.0322581 C97.4467742,65.0322581 112.129839,79.9185484 113.806452,101.308065 C114.162097,105.677419 108.319355,107.354032 106.23629,103.594355 L101.409677,94.9572581 C97.4975806,87.9967742 91.6548387,83.9830645 85.4056452,83.9830645 C79.1564516,83.9830645 73.3137097,87.9967742 69.4016129,94.9572581 L64.575,103.594355 C62.3903226,107.354032 56.5475806,105.626613 56.9032258,101.308065 Z" id="Path" fill="#413827"></path>
        </g>
        <text id="Thanks-for-shopping" font-family="-apple-system,BlinkMacSystemFont,Roboto,HelveticaArial,sans-serif" font-size="60" font-weight="700" letter-spacing="4.05714429" fill="#007AFF">
            <tspan x="29.4411909" y="118">Thanks for shopping with us!</tspan>
        </text>
    </g>
</svg>