<?xml version="1.0" encoding="UTF-8"?>
<svg width="500px" height="500px" viewBox="0 0 500 500" version="1.1" xmlns="http://www.w3.org/2000/svg" xmlns:xlink="http://www.w3.org/1999/xlink">
    <title>train</title>
    <g id="train" stroke="none" stroke-width="1" fill="none" fill-rule="evenodd">
        <g id="subway-duotone" transform="translate(31.000000, 0.000000)" fill-rule="nonzero">
            <path d="M372.070313,486.054688 L310.546875,437.5 L126.953125,437.5 L65.4296875,486.054688 C62.811373,488.120869 61.7935429,491.621425 62.8957758,494.769402 C63.9980086,497.917379 66.9771833,500.018423 70.3125,500.00012 L367.1875,500.00012 C370.522817,500.018423 373.501991,497.917379 374.604224,494.769402 C375.706457,491.621425 374.688627,488.120869 372.070313,486.054688 Z" id="Shape" fill="#83551B" opacity="0.556431702"></path>
            <path d="M126.953125,437.5 L310.546875,437.5 C377.34375,437.5 437.5,394.345703 437.5,343.75 L437.5,93.75 C437.5,41.9921875 375.976562,0 312.5,0 L125,0 C62.5,0 0,41.9921875 0,93.75 L0,343.75 C0,394.53125 60.3710938,437.5 126.953125,437.5 Z M343.75,375 C324.790832,375 307.698506,363.579273 300.443147,346.063286 C293.187788,328.547299 297.198214,308.385526 310.60437,294.97937 C324.010526,281.573214 344.172299,277.562788 361.688286,284.818147 C379.204273,292.073506 390.625,309.165832 390.625,328.125 C390.625,354.013348 369.638348,375 343.75,375 L343.75,375 Z M242.1875,117.1875 C242.1875,104.243326 252.680826,93.75 265.625,93.75 L367.1875,93.75 C380.131674,93.75 390.625,104.243326 390.625,117.1875 L390.625,226.5625 C390.625,239.506674 380.131674,250 367.1875,250 L265.625,250 C252.680826,250 242.1875,239.506674 242.1875,226.5625 L242.1875,117.1875 Z M46.875,117.1875 C46.875,104.243326 57.3683262,93.75 70.3125,93.75 L171.875,93.75 C184.819174,93.75 195.3125,104.243326 195.3125,117.1875 L195.3125,226.5625 C195.3125,239.506674 184.819174,250 171.875,250 L70.3125,250 C57.3683262,250 46.875,239.506674 46.875,226.5625 L46.875,117.1875 Z M93.75,281.25 C119.638348,281.25 140.625,302.236652 140.625,328.125 C140.625,354.013348 119.638348,375 93.75,375 C67.8616524,375 46.875,354.013348 46.875,328.125 C46.875,302.236652 67.8616524,281.25 93.75,281.25 Z" id="Shape" fill="#D53813"></path>
            <path d="M171.875,250 C184.819174,250 195.3125,239.506674 195.3125,226.5625 L195.3125,117.1875 C195.3125,104.243326 184.819174,93.75 171.875,93.75 L70.3125,93.75 C57.3683262,93.75 46.875,104.243326 46.875,117.1875 L46.875,226.5625 C46.875,239.506674 57.3683262,250 70.3125,250 L171.875,250 Z" id="Path" fill="#CBC4BB" opacity="0.556431702"></path>
            <path d="M367.1875,93.75 L265.625,93.75 C252.680826,93.75 242.1875,104.243326 242.1875,117.1875 L242.1875,226.5625 C242.1875,239.506674 252.680826,250 265.625,250 L367.1875,250 C380.131674,250 390.625,239.506674 390.625,226.5625 L390.625,117.1875 C390.625,104.243326 380.131674,93.75 367.1875,93.75 L367.1875,93.75 Z" id="Path" fill="#CBC4BB" opacity="0.556431702"></path>
        </g>
    </g>
</svg>