<?xml version="1.0" encoding="UTF-8"?>
<svg width="500px" height="500px" viewBox="0 0 500 500" version="1.1" xmlns="http://www.w3.org/2000/svg" xmlns:xlink="http://www.w3.org/1999/xlink">
    <title>truck</title>
    <g id="truck" stroke="none" stroke-width="1" fill="none" fill-rule="evenodd">
        <g id="truck-moving-duotone" transform="translate(0.000000, 84.000000)" fill-rule="nonzero">
            <path d="M175,250 C147.385763,250 125,272.385763 125,300 C125,327.614237 147.385763,350 175,350 C202.614237,350 225,327.614237 225,300 C225,272.385763 202.614237,250 175,250 Z M50,250 C22.3857625,250 0,272.385763 0,300 C0,327.614237 22.3857625,350 50,350 C77.6142375,350 100,327.614237 100,300 C100,272.385763 77.6142375,250 50,250 Z M412.5,250 C384.885763,250 362.5,272.385763 362.5,300 C362.5,327.614237 384.885763,350 412.5,350 C440.114237,350 462.5,327.614237 462.5,300 C462.5,272.385763 440.114237,250 412.5,250 Z" id="Shape" fill="#000000" opacity="0.700125999"></path>
            <path d="M485.390625,160.390625 L439.6875,114.6875 C430.296258,105.314968 417.56486,100.059402 404.296875,100.078125 L375,100.078125 L375,25 C375,11.1928813 363.807119,0 350,0 L25,0 C11.1928813,0 0,11.1928813 0,25 L0,244.148438 C16.2134404,229.604709 37.9542526,222.83825 59.5575175,225.612169 C81.1607824,228.386088 100.486849,240.425649 112.5,258.59375 C128.208051,234.898001 155.963573,222.120682 184.179792,225.595789 C212.396011,229.070897 236.22182,248.200969 245.710938,275 L341.804688,275 C352.405538,245.045054 380.7324,225.021353 412.507812,225.021353 C444.283225,225.021353 472.610087,245.045054 483.210938,275 L487.5,275 C494.403559,275 500.000037,269.403559 500.000037,262.5 L500.000037,195.703125 C500.016045,182.458627 494.759308,169.752504 485.390625,160.390625 L485.390625,160.390625 Z M375,175 L375,137.499988 L404.296875,137.499988 C407.611978,137.495306 410.791068,138.817582 413.125,141.171875 L446.953125,175 L375,175 Z" id="Shape" fill="#E14C4C"></path>
        </g>
    </g>
</svg>