<?xml version="1.0" encoding="UTF-8"?>
<svg width="500px" height="500px" viewBox="0 0 500 500" version="1.1" xmlns="http://www.w3.org/2000/svg" xmlns:xlink="http://www.w3.org/1999/xlink">
    <title>wrench</title>
    <g id="wrench" stroke="none" stroke-width="1" fill="none" fill-rule="evenodd">
        <g id="wrench-solid" fill="#999999" fill-rule="nonzero">
            <path d="M495.830078,106.542969 C493.642578,97.7246094 482.607422,94.7363281 476.181641,101.162109 L403.564453,173.779297 L337.275391,162.734375 L326.230469,96.4453125 L398.847656,23.828125 C405.3125,17.3632812 402.197266,6.34765625 393.320312,4.140625 C347.050781,-7.32421875 296.103516,5.02929687 259.941406,41.1816406 C221.230469,79.8925781 210.576172,136.005859 226.689453,184.931641 L18.3007812,393.320312 C-6.10351562,417.724609 -6.10351562,457.294922 18.3007812,481.699219 C42.7050781,506.103516 82.2753906,506.103516 106.679687,481.699219 L314.892578,273.486328 C363.837891,289.804687 419.84375,279.033203 458.808594,240.068359 C495.009766,203.867187 507.34375,152.841797 495.830078,106.542969 Z M62.5,460.9375 C49.5605469,460.9375 39.0625,450.439453 39.0625,437.5 C39.0625,424.550781 49.5605469,414.0625 62.5,414.0625 C75.4394531,414.0625 85.9375,424.550781 85.9375,437.5 C85.9375,450.439453 75.4394531,460.9375 62.5,460.9375 Z" id="Shape"></path>
        </g>
    </g>
</svg>